<svg xmlns="http://www.w3.org/2000/svg" width="800" height="645" viewBox="0 0 800 645">
  <defs>
    <pattern id="bg-grid" width="30" height="30" patternUnits="userSpaceOnUse">
      <path d="M 30 0 L 0 0 0 30" fill="none" stroke="#33cc66" stroke-width="0.5" opacity="0.25" />
    </pattern>
  </defs>
  <style>
    .monospace { font-family: monospace, Courier, fixed; }
    .text-green { fill: #33cc66; }
    .text-green-dim { fill: #33cc66; opacity: 0.65; }
    .text-gold { fill: #ffcc00; }
    .text-white { fill: #ffffff; }
    @keyframes drawPath {
      from { stroke-dashoffset: 6000; }
      to { stroke-dashoffset: 0; }
    }
    @keyframes fadeInFill {
      from { opacity: 0; }
      to { opacity: 1; }
    }
    .chart-line-g1 {
      stroke-dasharray: 6000;
      stroke-dashoffset: 6000;
      animation: drawPath 2.5s ease-out forwards;
      animation-delay: 1.5s;
    }
    .chart-line-g2 {
      stroke-dasharray: 6000;
      stroke-dashoffset: 6000;
      animation: drawPath 4.0s ease-out forwards;
      animation-delay: 1.5s;
    }
    .chart-fill {
      opacity: 0;
      animation: fadeInFill 1.5s ease-out forwards;
      animation-delay: 3.5s;
    }
  </style>
  <rect x="0" y="0" width="800" height="645" fill="#000000"/>
  <path d="M 0,0 L 0,645 L 800,645 L 800,0" stroke="#33cc66" stroke-width="4" fill="none"/>
  <!-- Section Header -->
  <rect x="2" y="0" width="796" height="30" fill="#051a08" stroke="#33cc66" stroke-width="2"/>
  <text x="20" y="21" class="monospace text-gold" font-size="16" font-weight="bold">[ BIOMETRIC METRICS &amp; PERFORMANCE GRAPH ]</text>

  <!-- ═══ ROW 1: GitHub Stats (left) + Graph 1 This Year (right) ═══ -->
  <rect x="15" y="42" width="375" height="200" fill="none" stroke="#33cc66" stroke-width="2"/>
  <g transform="translate(15,42)">
    <g transform="translate(15,28)" font-size="11" class="monospace">
      <text x="0" y="10"  class="text-green" font-weight="bold">TOTAL STARS:<tspan x="148" class="text-white" font-weight="normal">82</tspan></text>
      <text x="0" y="32"  class="text-green" font-weight="bold">TOTAL COMMITS:<tspan x="148" class="text-white" font-weight="normal">1465</tspan></text>
      <text x="0" y="54"  class="text-green" font-weight="bold">PULL REQUESTS:<tspan x="148" class="text-white" font-weight="normal">115</tspan></text>
      <text x="0" y="76"  class="text-green" font-weight="bold">TOTAL ISSUES:<tspan x="148" class="text-white" font-weight="normal">6</tspan></text>
      <text x="0" y="98"  class="text-green" font-weight="bold">CONTRIBUTED TO:<tspan x="148" class="text-white" font-weight="normal">24</tspan></text>
      <text x="0" y="120" class="text-green" font-weight="bold">YEARS ACTIVE:<tspan x="148" class="text-white" font-weight="normal">7 years ago</tspan></text>
    </g>
    <g transform="translate(308,100)">
      <circle cx="0" cy="0" r="34" fill="none" stroke="#ffcc00" stroke-width="4" opacity="0.2"/>
      <circle cx="0" cy="0" r="34" fill="none" stroke="#ffcc00" stroke-width="4" stroke-dasharray="200" stroke-dashoffset="50" stroke-linecap="round"/>
      <text x="0" y="8"  class="monospace text-gold" font-size="20" text-anchor="middle" font-weight="bold">A-</text>
      <text x="0" y="48" class="monospace text-gold" font-size="8"  text-anchor="middle">RANK</text>
    </g>
  </g>

  <rect x="400" y="42" width="383" height="200" fill="none" stroke="#33cc66" stroke-width="2"/>
  <g transform="translate(400,42)">
    <text x="20" y="22" class="monospace text-gold" font-size="12" font-weight="bold">[ COMMITS - THIS YEAR ]</text>
    <defs>
      <linearGradient id="chart-grad-ly" x1="0" y1="0" x2="0" y2="1">
        <stop offset="0%" stop-color="#33cc66" stop-opacity="0.35"/>
        <stop offset="100%" stop-color="#33cc66" stop-opacity="0.0"/>
      </linearGradient>
    </defs>
    <svg x="18" y="30" width="345" height="155" viewBox="0 0 345 155" preserveAspectRatio="none">
      <line x1="0" y1="33" x2="345" y2="33" stroke="#33cc66" stroke-width="0.5" opacity="0.08" stroke-dasharray="2 2"/>
      <line x1="0" y1="66" x2="345" y2="66" stroke="#33cc66" stroke-width="0.5" opacity="0.08" stroke-dasharray="2 2"/>
      <text x="0.0" y="115" class="monospace text-green-dim" font-size="8" text-anchor="middle">Jun</text>
        <text x="27.1" y="115" class="monospace text-green-dim" font-size="8" text-anchor="middle">Jul</text>
        <text x="54.1" y="115" class="monospace text-green-dim" font-size="8" text-anchor="middle">Aug</text>
        <text x="81.2" y="115" class="monospace text-green-dim" font-size="8" text-anchor="middle">Sep</text>
        <text x="108.2" y="115" class="monospace text-green-dim" font-size="8" text-anchor="middle">Oct</text>
        <text x="135.3" y="115" class="monospace text-green-dim" font-size="8" text-anchor="middle">Nov</text>
        <text x="162.4" y="115" class="monospace text-green-dim" font-size="8" text-anchor="middle">Dec</text>
        <text x="189.4" y="115" class="monospace text-green-dim" font-size="8" text-anchor="middle">Jan</text>
        <text x="216.5" y="115" class="monospace text-green-dim" font-size="8" text-anchor="middle">Feb</text>
        <text x="243.5" y="115" class="monospace text-green-dim" font-size="8" text-anchor="middle">Mar</text>
        <text x="270.6" y="115" class="monospace text-green-dim" font-size="8" text-anchor="middle">Apr</text>
        <text x="304.4" y="115" class="monospace text-green-dim" font-size="8" text-anchor="middle">May</text>
        <text x="331.5" y="115" class="monospace text-green-dim" font-size="8" text-anchor="middle">Jun</text>
      <path d="M0.0,35.1L6.8,35.1L13.5,38.4L20.3,35.1L27.1,29.6L33.8,30.7L40.6,30.7L47.4,31.8L54.1,32.9L60.9,27.4L67.6,34.0L74.4,35.1L81.2,31.8L87.9,26.3L94.7,26.3L101.5,25.2L108.2,26.3L115.0,29.6L121.8,24.1L128.5,30.7L135.3,21.9L142.1,21.9L148.8,21.9L155.6,13.1L162.4,12.0L169.1,12.0L175.9,86.8L182.6,86.8L189.4,18.6L196.2,18.6L202.9,13.1L209.7,12.0L216.5,12.0L223.2,15.3L230.0,14.2L236.8,12.0L243.5,12.0L250.3,12.0L257.1,18.6L263.8,21.9L270.6,20.8L277.4,21.9L284.1,20.8L290.9,27.4L297.6,30.7L304.4,25.2L311.2,21.9L317.9,18.6L324.7,13.1L331.5,16.4L338.2,12.0L345.0,12.0 L345.0,100.0 L0.0,100.0 Z" fill="url(#chart-grad-ly)" stroke="none" class="chart-fill"/>
      <path d="M0.0,35.1L6.8,35.1L13.5,38.4L20.3,35.1L27.1,29.6L33.8,30.7L40.6,30.7L47.4,31.8L54.1,32.9L60.9,27.4L67.6,34.0L74.4,35.1L81.2,31.8L87.9,26.3L94.7,26.3L101.5,25.2L108.2,26.3L115.0,29.6L121.8,24.1L128.5,30.7L135.3,21.9L142.1,21.9L148.8,21.9L155.6,13.1L162.4,12.0L169.1,12.0L175.9,86.8L182.6,86.8L189.4,18.6L196.2,18.6L202.9,13.1L209.7,12.0L216.5,12.0L223.2,15.3L230.0,14.2L236.8,12.0L243.5,12.0L250.3,12.0L257.1,18.6L263.8,21.9L270.6,20.8L277.4,21.9L284.1,20.8L290.9,27.4L297.6,30.7L304.4,25.2L311.2,21.9L317.9,18.6L324.7,13.1L331.5,16.4L338.2,12.0L345.0,12.0" fill="none" stroke="#33cc66" stroke-width="2" class="chart-line-g1"/>
    </svg>
  </g>

  <!-- ═══ ROW 2: Languages (left) + Top Repositories (right) ═══ -->
  <rect x="15" y="254" width="375" height="160" fill="none" stroke="#33cc66" stroke-width="2"/>
  <g transform="translate(15,254)">
    <text x="20" y="22" class="monospace text-gold" font-size="12" font-weight="bold">[ MOST USED LANGUAGES ]</text>
    
      <text x="20" y="46" font-size="9.5" class="monospace text-white">Python <tspan fill="#3572A5" font-weight="bold">(74.8%)</tspan></text>
      <text x="20" y="57" font-size="9" font-family="monospace, Courier, fixed" textLength="335" lengthAdjust="spacing"><tspan fill="#3572A5">##############################</tspan><tspan fill="#33cc66" opacity="0.18">::::::::::</tspan></text>
      <text x="20" y="69" font-size="9.5" class="monospace text-white">Vue <tspan fill="#41b883" font-weight="bold">(10.1%)</tspan></text>
      <text x="20" y="80" font-size="9" font-family="monospace, Courier, fixed" textLength="335" lengthAdjust="spacing"><tspan fill="#41b883">####</tspan><tspan fill="#33cc66" opacity="0.18">::::::::::::::::::::::::::::::::::::</tspan></text>
      <text x="20" y="92" font-size="9.5" class="monospace text-white">GDScript <tspan fill="#478CBF" font-weight="bold">(9.7%)</tspan></text>
      <text x="20" y="103" font-size="9" font-family="monospace, Courier, fixed" textLength="335" lengthAdjust="spacing"><tspan fill="#478CBF">####</tspan><tspan fill="#33cc66" opacity="0.18">::::::::::::::::::::::::::::::::::::</tspan></text>
      <text x="20" y="115" font-size="9.5" class="monospace text-white">JavaScript <tspan fill="#f1e05a" font-weight="bold">(3.8%)</tspan></text>
      <text x="20" y="126" font-size="9" font-family="monospace, Courier, fixed" textLength="335" lengthAdjust="spacing"><tspan fill="#f1e05a">##</tspan><tspan fill="#33cc66" opacity="0.18">::::::::::::::::::::::::::::::::::::::</tspan></text>
      <text x="20" y="138" font-size="9.5" class="monospace text-white">C# <tspan fill="#178600" font-weight="bold">(0.9%)</tspan></text>
      <text x="20" y="149" font-size="9" font-family="monospace, Courier, fixed" textLength="335" lengthAdjust="spacing"><tspan fill="#178600"></tspan><tspan fill="#33cc66" opacity="0.18">::::::::::::::::::::::::::::::::::::::::</tspan></text>
  </g>

  <rect x="400" y="254" width="383" height="160" fill="none" stroke="#33cc66" stroke-width="2"/>
  <g transform="translate(400,254)">
    <text x="20" y="22" class="monospace text-gold" font-size="12" font-weight="bold">[ TOP REPOSITORIES ]</text>
    
      <text x="20" y="50" font-size="10" class="monospace text-green" font-weight="bold">DinoGochi-WebOpen</text>
      <text x="238" y="50" font-size="10" class="monospace text-gold">&#x2605; 43</text>
      <text x="285" y="50" font-size="9" class="monospace text-white" opacity="0.55">[Python]</text>
      <text x="20" y="79" font-size="10" class="monospace text-green" font-weight="bold">SMM.web</text>
      <text x="238" y="79" font-size="10" class="monospace text-gold">&#x2605; 18</text>
      <text x="285" y="79" font-size="9" class="monospace text-white" opacity="0.55">[Vue]</text>
      <text x="20" y="108" font-size="10" class="monospace text-green" font-weight="bold">SPS-Shortly-PartySto..</text>
      <text x="238" y="108" font-size="10" class="monospace text-gold">&#x2605; 15</text>
      <text x="285" y="108" font-size="9" class="monospace text-white" opacity="0.55">[GDScript]</text>
      <text x="20" y="137" font-size="10" class="monospace text-green" font-weight="bold">vibe-preparation</text>
      <text x="238" y="137" font-size="10" class="monospace text-gold">&#x2605; 2</text>
      <text x="285" y="137" font-size="9" class="monospace text-white" opacity="0.55">[JavaScript]</text>
  </g>

  <!-- ═══ ROW 3: All-Time Graph (full width) ═══ -->
  <rect x="15" y="426" width="770" height="207" fill="none" stroke="#33cc66" stroke-width="2"/>
  <g transform="translate(15,426)">
    <text x="20" y="22" class="monospace text-gold" font-size="12" font-weight="bold">[ ALL-TIME CONTRIBUTION GRAPH ]</text>
    <defs>
      <linearGradient id="chart-grad-at" x1="0" y1="0" x2="0" y2="1">
        <stop offset="0%" stop-color="#33cc66" stop-opacity="0.35"/>
        <stop offset="100%" stop-color="#33cc66" stop-opacity="0.0"/>
      </linearGradient>
    </defs>
    <svg x="15" y="30" width="740" height="165" viewBox="0 0 740 165" preserveAspectRatio="none">
      <line x1="0" y1="39" x2="740" y2="39" stroke="#33cc66" stroke-width="0.5" opacity="0.08" stroke-dasharray="2 2"/>
      <line x1="0" y1="79" x2="740" y2="79" stroke="#33cc66" stroke-width="0.5" opacity="0.08" stroke-dasharray="2 2"/>
      <line x1="0.0" y1="0" x2="0.0" y2="120" stroke="#33cc66" stroke-width="0.5" opacity="0.18" stroke-dasharray="2 2"/>
        <text x="2.0" y="133" class="monospace text-green-dim" font-size="7.5" text-anchor="start">2019</text>
        <line x1="53.0" y1="0" x2="53.0" y2="120" stroke="#33cc66" stroke-width="0.5" opacity="0.18" stroke-dasharray="2 2"/>
        <text x="55.0" y="133" class="monospace text-green-dim" font-size="7.5" text-anchor="start">2020</text>
        <line x1="161.0" y1="0" x2="161.0" y2="120" stroke="#33cc66" stroke-width="0.5" opacity="0.18" stroke-dasharray="2 2"/>
        <text x="163.0" y="133" class="monospace text-green-dim" font-size="7.5" text-anchor="start">2021</text>
        <line x1="267.1" y1="0" x2="267.1" y2="120" stroke="#33cc66" stroke-width="0.5" opacity="0.18" stroke-dasharray="2 2"/>
        <text x="269.1" y="133" class="monospace text-green-dim" font-size="7.5" text-anchor="start">2022</text>
        <line x1="373.1" y1="0" x2="373.1" y2="120" stroke="#33cc66" stroke-width="0.5" opacity="0.18" stroke-dasharray="2 2"/>
        <text x="375.1" y="133" class="monospace text-green-dim" font-size="7.5" text-anchor="start">2023</text>
        <line x1="479.1" y1="0" x2="479.1" y2="120" stroke="#33cc66" stroke-width="0.5" opacity="0.18" stroke-dasharray="2 2"/>
        <text x="481.1" y="133" class="monospace text-green-dim" font-size="7.5" text-anchor="start">2024</text>
        <line x1="585.1" y1="0" x2="585.1" y2="120" stroke="#33cc66" stroke-width="0.5" opacity="0.18" stroke-dasharray="2 2"/>
        <text x="587.1" y="133" class="monospace text-green-dim" font-size="7.5" text-anchor="start">2025</text>
        <line x1="693.1" y1="0" x2="693.1" y2="120" stroke="#33cc66" stroke-width="0.5" opacity="0.18" stroke-dasharray="2 2"/>
        <text x="695.1" y="133" class="monospace text-green-dim" font-size="7.5" text-anchor="start">2026</text>
      <path d="M0.0,104.2L2.0,112.1L4.1,110.8L6.1,110.8L8.2,110.8L10.2,112.1L12.2,116.0L14.3,120.0L16.3,113.4L18.3,120.0L20.4,120.0L22.4,120.0L24.5,120.0L26.5,120.0L28.5,120.0L30.6,120.0L32.6,113.4L34.7,113.4L36.7,102.8L38.7,101.5L40.8,109.4L42.8,110.8L44.8,104.2L46.9,100.2L48.9,98.9L51.0,117.4L53.0,100.2L55.0,96.2L57.1,100.2L59.1,104.2L61.2,97.6L63.2,101.5L65.2,97.6L67.3,93.6L69.3,92.3L71.3,100.2L73.4,89.6L75.4,93.6L77.5,87.0L79.5,91.0L81.5,89.6L83.6,85.7L85.6,85.7L87.7,89.6L89.7,97.6L91.7,97.6L93.8,96.2L95.8,100.2L97.9,100.2L99.9,104.2L101.9,97.6L104.0,96.2L106.0,85.7L108.0,81.7L110.1,83.0L112.1,79.1L114.2,75.1L116.2,75.1L118.2,73.8L120.3,77.8L122.3,79.1L124.4,79.1L126.4,80.4L128.4,69.8L130.5,63.2L132.5,61.9L134.5,61.9L136.6,58.0L138.6,65.9L140.7,65.9L142.7,73.8L144.7,69.8L146.8,63.2L148.8,61.9L150.9,65.9L152.9,65.9L154.9,61.9L157.0,112.1L159.0,110.8L161.0,44.8L163.1,34.2L165.1,35.5L167.2,34.2L169.2,35.5L171.2,35.5L173.3,34.2L175.3,27.6L177.4,21.0L179.4,17.0L181.4,17.0L183.5,18.4L185.5,14.4L187.5,18.4L189.6,26.3L191.6,30.2L193.7,31.6L195.7,32.9L197.7,26.3L199.8,30.2L201.8,23.6L203.9,17.0L205.9,14.4L207.9,14.4L210.0,22.3L212.0,26.3L214.0,25.0L216.1,21.0L218.1,25.0L220.2,23.6L222.2,17.0L224.2,18.4L226.3,14.4L228.3,22.3L230.4,21.0L232.4,22.3L234.4,26.3L236.5,25.0L238.5,25.0L240.6,26.3L242.6,22.3L244.6,23.6L246.7,31.6L248.7,27.6L250.7,17.0L252.8,25.0L254.8,28.9L256.9,25.0L258.9,23.6L260.9,23.6L263.0,106.8L265.0,106.8L267.1,35.5L269.1,39.5L271.1,28.9L273.2,32.9L275.2,34.2L277.2,35.5L279.3,25.0L281.3,26.3L283.4,25.0L285.4,18.4L287.4,18.4L289.5,18.4L291.5,17.0L293.6,14.4L295.6,14.4L297.6,14.4L299.7,14.4L301.7,18.4L303.7,18.4L305.8,18.4L307.8,22.3L309.9,18.4L311.9,26.3L313.9,26.3L316.0,26.3L318.0,34.2L320.1,38.2L322.1,46.1L324.1,46.1L326.2,50.0L328.2,58.0L330.2,54.0L332.3,58.0L334.3,58.0L336.4,56.6L338.4,46.1L340.4,46.1L342.5,47.4L344.5,36.8L346.6,36.8L348.6,26.3L350.6,19.7L352.7,19.7L354.7,23.6L356.7,27.6L358.8,21.0L360.8,17.0L362.9,14.4L364.9,14.4L366.9,14.4L369.0,105.5L371.0,106.8L373.1,34.2L375.1,27.6L377.1,23.6L379.2,27.6L381.2,27.6L383.3,27.6L385.3,27.6L387.3,17.0L389.4,18.4L391.4,14.4L393.4,15.7L395.5,14.4L397.5,14.4L399.6,14.4L401.6,18.4L403.6,14.4L405.7,18.4L407.7,26.3L409.8,34.2L411.8,38.2L413.8,38.2L415.9,39.5L417.9,32.9L419.9,22.3L422.0,14.4L424.0,14.4L426.1,14.4L428.1,22.3L430.1,23.6L432.2,17.0L434.2,25.0L436.3,18.4L438.3,17.0L440.3,14.4L442.4,14.4L444.4,14.4L446.4,14.4L448.5,15.7L450.5,15.7L452.6,14.4L454.6,14.4L456.6,22.3L458.7,30.2L460.7,26.3L462.8,34.2L464.8,42.1L466.8,31.6L468.9,32.9L470.9,40.8L472.9,44.8L475.0,46.1L477.0,110.8L479.1,54.0L481.1,54.0L483.1,47.4L485.2,51.4L487.2,51.4L489.3,59.3L491.3,63.2L493.3,56.6L495.4,52.7L497.4,51.4L499.4,51.4L501.5,47.4L503.5,47.4L505.6,46.1L507.6,39.5L509.6,40.8L511.7,39.5L513.7,28.9L515.8,25.0L517.8,28.9L519.8,36.8L521.9,26.3L523.9,30.2L526.0,34.2L528.0,34.2L530.0,32.9L532.1,34.2L534.1,30.2L536.1,34.2L538.2,34.2L540.2,30.2L542.3,28.9L544.3,30.2L546.3,19.7L548.4,18.4L550.4,26.3L552.5,25.0L554.5,28.9L556.5,30.2L558.6,28.9L560.6,32.9L562.6,36.8L564.7,38.2L566.7,36.8L568.8,35.5L570.8,35.5L572.8,31.6L574.9,31.6L576.9,30.2L579.0,19.7L581.0,18.4L583.0,106.8L585.1,30.2L587.1,23.6L589.1,22.3L591.2,30.2L593.2,38.2L595.3,34.2L597.3,35.5L599.3,34.2L601.4,35.5L603.4,25.0L605.5,18.4L607.5,26.3L609.5,30.2L611.6,34.2L613.6,35.5L615.6,43.4L617.7,39.5L619.7,40.8L621.8,34.2L623.8,35.5L625.8,43.4L627.9,42.1L629.9,38.2L632.0,46.1L634.0,42.1L636.0,42.1L638.1,42.1L640.1,46.1L642.1,42.1L644.2,35.5L646.2,36.8L648.3,36.8L650.3,38.2L652.3,39.5L654.4,32.9L656.4,40.8L658.5,42.1L660.5,38.2L662.5,31.6L664.6,31.6L666.6,30.2L668.7,31.6L670.7,35.5L672.7,28.9L674.8,36.8L676.8,26.3L678.8,26.3L680.9,26.3L682.9,15.7L685.0,14.4L687.0,14.4L689.0,104.2L691.1,104.2L693.1,22.3L695.2,22.3L697.2,15.7L699.2,14.4L701.3,14.4L703.3,18.4L705.3,17.0L707.4,14.4L709.4,14.4L711.5,14.4L713.5,22.3L715.5,26.3L717.6,25.0L719.6,26.3L721.7,25.0L723.7,32.9L725.7,36.8L727.8,30.2L729.8,26.3L731.8,22.3L733.9,15.7L735.9,19.7L738.0,14.4L740.0,14.4 L740.0,120.0 L0.0,120.0 Z" fill="url(#chart-grad-at)" stroke="none" class="chart-fill"/>
      <path d="M0.0,104.2L2.0,112.1L4.1,110.8L6.1,110.8L8.2,110.8L10.2,112.1L12.2,116.0L14.3,120.0L16.3,113.4L18.3,120.0L20.4,120.0L22.4,120.0L24.5,120.0L26.5,120.0L28.5,120.0L30.6,120.0L32.6,113.4L34.7,113.4L36.7,102.8L38.7,101.5L40.8,109.4L42.8,110.8L44.8,104.2L46.9,100.2L48.9,98.9L51.0,117.4L53.0,100.2L55.0,96.2L57.1,100.2L59.1,104.2L61.2,97.6L63.2,101.5L65.2,97.6L67.3,93.6L69.3,92.3L71.3,100.2L73.4,89.6L75.4,93.6L77.5,87.0L79.5,91.0L81.5,89.6L83.6,85.7L85.6,85.7L87.7,89.6L89.7,97.6L91.7,97.6L93.8,96.2L95.8,100.2L97.9,100.2L99.9,104.2L101.9,97.6L104.0,96.2L106.0,85.7L108.0,81.7L110.1,83.0L112.1,79.1L114.2,75.1L116.2,75.1L118.2,73.8L120.3,77.8L122.3,79.1L124.4,79.1L126.4,80.4L128.4,69.8L130.5,63.2L132.5,61.9L134.5,61.9L136.6,58.0L138.6,65.9L140.7,65.9L142.7,73.8L144.7,69.8L146.8,63.2L148.8,61.9L150.9,65.9L152.9,65.9L154.9,61.9L157.0,112.1L159.0,110.8L161.0,44.8L163.1,34.2L165.1,35.5L167.2,34.2L169.2,35.5L171.2,35.5L173.3,34.2L175.3,27.6L177.4,21.0L179.4,17.0L181.4,17.0L183.5,18.4L185.5,14.4L187.5,18.4L189.6,26.3L191.6,30.2L193.7,31.6L195.7,32.9L197.7,26.3L199.8,30.2L201.8,23.6L203.9,17.0L205.9,14.4L207.9,14.4L210.0,22.3L212.0,26.3L214.0,25.0L216.1,21.0L218.1,25.0L220.2,23.6L222.2,17.0L224.2,18.4L226.3,14.4L228.3,22.3L230.4,21.0L232.4,22.3L234.4,26.3L236.5,25.0L238.5,25.0L240.6,26.3L242.6,22.3L244.6,23.6L246.7,31.6L248.7,27.6L250.7,17.0L252.8,25.0L254.8,28.9L256.9,25.0L258.9,23.6L260.9,23.6L263.0,106.8L265.0,106.8L267.1,35.5L269.1,39.5L271.1,28.9L273.2,32.9L275.2,34.2L277.2,35.5L279.3,25.0L281.3,26.3L283.4,25.0L285.4,18.4L287.4,18.4L289.5,18.4L291.5,17.0L293.6,14.4L295.6,14.4L297.6,14.4L299.7,14.4L301.7,18.4L303.7,18.4L305.8,18.4L307.8,22.3L309.9,18.4L311.9,26.3L313.9,26.3L316.0,26.3L318.0,34.2L320.1,38.2L322.1,46.1L324.1,46.1L326.2,50.0L328.2,58.0L330.2,54.0L332.3,58.0L334.3,58.0L336.4,56.6L338.4,46.1L340.4,46.1L342.5,47.4L344.5,36.8L346.6,36.8L348.6,26.3L350.6,19.7L352.7,19.7L354.7,23.6L356.7,27.6L358.8,21.0L360.8,17.0L362.9,14.4L364.9,14.4L366.9,14.4L369.0,105.5L371.0,106.8L373.1,34.2L375.1,27.6L377.1,23.6L379.2,27.6L381.2,27.6L383.3,27.6L385.3,27.6L387.3,17.0L389.4,18.4L391.4,14.4L393.4,15.7L395.5,14.4L397.5,14.4L399.6,14.4L401.6,18.4L403.6,14.4L405.7,18.4L407.7,26.3L409.8,34.2L411.8,38.2L413.8,38.2L415.9,39.5L417.9,32.9L419.9,22.3L422.0,14.4L424.0,14.4L426.1,14.4L428.1,22.3L430.1,23.6L432.2,17.0L434.2,25.0L436.3,18.4L438.3,17.0L440.3,14.4L442.4,14.4L444.4,14.4L446.4,14.4L448.5,15.7L450.5,15.7L452.6,14.4L454.6,14.4L456.6,22.3L458.7,30.2L460.7,26.3L462.8,34.2L464.8,42.1L466.8,31.6L468.9,32.9L470.9,40.8L472.9,44.8L475.0,46.1L477.0,110.8L479.1,54.0L481.1,54.0L483.1,47.4L485.2,51.4L487.2,51.4L489.3,59.3L491.3,63.2L493.3,56.6L495.4,52.7L497.4,51.4L499.4,51.4L501.5,47.4L503.5,47.4L505.6,46.1L507.6,39.5L509.6,40.8L511.7,39.5L513.7,28.9L515.8,25.0L517.8,28.9L519.8,36.8L521.9,26.3L523.9,30.2L526.0,34.2L528.0,34.2L530.0,32.9L532.1,34.2L534.1,30.2L536.1,34.2L538.2,34.2L540.2,30.2L542.3,28.9L544.3,30.2L546.3,19.7L548.4,18.4L550.4,26.3L552.5,25.0L554.5,28.9L556.5,30.2L558.6,28.9L560.6,32.9L562.6,36.8L564.7,38.2L566.7,36.8L568.8,35.5L570.8,35.5L572.8,31.6L574.9,31.6L576.9,30.2L579.0,19.7L581.0,18.4L583.0,106.8L585.1,30.2L587.1,23.6L589.1,22.3L591.2,30.2L593.2,38.2L595.3,34.2L597.3,35.5L599.3,34.2L601.4,35.5L603.4,25.0L605.5,18.4L607.5,26.3L609.5,30.2L611.6,34.2L613.6,35.5L615.6,43.4L617.7,39.5L619.7,40.8L621.8,34.2L623.8,35.5L625.8,43.4L627.9,42.1L629.9,38.2L632.0,46.1L634.0,42.1L636.0,42.1L638.1,42.1L640.1,46.1L642.1,42.1L644.2,35.5L646.2,36.8L648.3,36.8L650.3,38.2L652.3,39.5L654.4,32.9L656.4,40.8L658.5,42.1L660.5,38.2L662.5,31.6L664.6,31.6L666.6,30.2L668.7,31.6L670.7,35.5L672.7,28.9L674.8,36.8L676.8,26.3L678.8,26.3L680.9,26.3L682.9,15.7L685.0,14.4L687.0,14.4L689.0,104.2L691.1,104.2L693.1,22.3L695.2,22.3L697.2,15.7L699.2,14.4L701.3,14.4L703.3,18.4L705.3,17.0L707.4,14.4L709.4,14.4L711.5,14.4L713.5,22.3L715.5,26.3L717.6,25.0L719.6,26.3L721.7,25.0L723.7,32.9L725.7,36.8L727.8,30.2L729.8,26.3L731.8,22.3L733.9,15.7L735.9,19.7L738.0,14.4L740.0,14.4" fill="none" stroke="#33cc66" stroke-width="2" class="chart-line-g2"/>
    </svg>
  </g>
</svg>