<svg xmlns="http://www.w3.org/2000/svg" width="800" height="460" viewBox="0 0 800 460">
  <style>
    .monospace { font-family: monospace, Courier, fixed; }
    .text-gold { fill: #ffcc00; }
  </style>
  <rect x="0" y="0" width="800" height="460" fill="#000000"/>
  <path d="M 0,0 L 0,460 L 800,460 L 800,0" stroke="#33cc66" stroke-width="4" fill="none"/>
  <!-- Section Header -->
  <rect x="2" y="0" width="796" height="30" fill="#051a08" stroke="#33cc66" stroke-width="2"/>
  <text x="20" y="20" class="monospace text-gold" font-size="13" font-weight="bold">[ BIOMETRIC METRICS &amp; PERFORMANCE GRAPH ]</text>

  <!-- Summary Card (Inlined) -->
  <rect x="15" y="45" width="770" height="180" fill="none" stroke="#33cc66" stroke-width="2"/>
  <svg xmlns="http://www.w3.org/2000/svg" width="766" height="176" viewBox="0 0 700 200" x="17" y="47"><style>* {
          font-family: 'Segoe UI', Ubuntu, "Helvetica Neue", Sans-Serif
        }</style><rect x="1" y="1" rx="5" ry="5" height="99%" width="99.71428571428571%" stroke="#000000" stroke-width="1" fill="#000" stroke-opacity="1" /><text x="30" y="40" style="font-size: 22px; fill: #7fff00;">Rimuwu (AS1)</text><g transform="translate(0,40)"><g transform="translate(30,30)"><g transform="translate(0,0)" width="14" height="14" fill="#00aeff"><path fill-rule="evenodd" d="M8 0C3.58 0 0 3.58 0 8c0 3.54 2.29 6.53 5.47 7.59.4.07.55-.17.55-.38 0-.19-.01-.82-.01-1.49-2.01.37-2.53-.49-2.69-.94-.09-.23-.48-.94-.82-1.13-.28-.15-.68-.52-.01-.53.63-.01 1.08.58 1.23.82.72 1.21 1.87.87 2.33.66.07-.52.28-.87.51-1.07-1.78-.2-3.64-.89-3.64-3.95 0-.87.31-1.59.82-2.15-.08-.2-.36-1.02.08-2.12 0 0 .67-.21 2.2.82.64-.18 1.32-.27 2-.27.68 0 1.36.09 2 .27 1.53-1.04 2.2-.82 2.2-.82.44 1.1.16 1.92.08 2.12.51.56.82 1.27.82 2.15 0 3.07-1.87 3.75-3.65 3.95.29.25.54.73.54 1.48 0 1.07-.01 1.93-.01 2.2 0 .21.15.46.55.38A8.013 8.013 0 0016 8c0-4.42-3.58-8-8-8z" /></g><g transform="translate(0,28)" width="14" height="14" fill="#00aeff"><path fill-rule="evenodd" d="M2 2.5A2.5 2.5 0 014.5 0h8.75a.75.75 0 01.75.75v12.5a.75.75 0 01-.75.75h-2.5a.75.75 0 110-1.5h1.75v-2h-8a1 1 0 00-.714 1.7.75.75 0 01-1.072 1.05A2.495 2.495 0 012 11.5v-9zm10.5-1V9h-8c-.356 0-.694.074-1 .208V2.5a1 1 0 011-1h8zM5 12.25v3.25a.25.25 0 00.4.2l1.45-1.087a.25.25 0 01.3 0L8.6 15.7a.25.25 0 00.4-.2v-3.25a.25.25 0 00-.25-.25h-3.5a.25.25 0 00-.25.25z" /></g><g transform="translate(0,56)" width="14" height="14" fill="#00aeff"><path fill-rule="evenodd" d="M1.5 8a6.5 6.5 0 1113 0 6.5 6.5 0 01-13 0zM8 0a8 8 0 100 16A8 8 0 008 0zm.5 4.75a.75.75 0 00-1.5 0v3.5a.75.75 0 00.471.696l2.5 1a.75.75 0 00.557-1.392L8.5 7.742V4.75z" /></g><g transform="translate(0,84)" width="14" height="14" fill="#00aeff"><path fill-rule="evenodd" d="M1.5 14.25c0 .138.112.25.25.25H4v-1.25a.75.75 0 01.75-.75h2.5a.75.75 0 01.75.75v1.25h2.25a.25.25 0 00.25-.25V1.75a.25.25 0 00-.25-.25h-8.5a.25.25 0 00-.25.25v12.5zM1.75 16A1.75 1.75 0 010 14.25V1.75C0 .784.784 0 1.75 0h8.5C11.216 0 12 .784 12 1.75v12.5c0 .085-.006.168-.018.25h2.268a.25.25 0 00.25-.25V8.285a.25.25 0 00-.111-.208l-1.055-.703a.75.75 0 11.832-1.248l1.055.703c.487.325.779.871.779 1.456v5.965A1.75 1.75 0 0114.25 16h-3.5a.75.75 0 01-.197-.026c-.099.017-.2.026-.303.026h-3a.75.75 0 01-.75-.75V14h-1v1.25a.75.75 0 01-.75.75h-3zM3 3.75A.75.75 0 013.75 3h.5a.75.75 0 010 1.5h-.5A.75.75 0 013 3.75zM3.75 6a.75.75 0 000 1.5h.5a.75.75 0 000-1.5h-.5zM3 9.75A.75.75 0 013.75 9h.5a.75.75 0 010 1.5h-.5A.75.75 0 013 9.75zM7.75 9a.75.75 0 000 1.5h.5a.75.75 0 000-1.5h-.5zM7 6.75A.75.75 0 017.75 6h.5a.75.75 0 010 1.5h-.5A.75.75 0 017 6.75zM7.75 3a.75.75 0 000 1.5h.5a.75.75 0 000-1.5h-.5z" /></g><text x="21" y="14" style="fill: #fff; font-size: 14px;">6.29k Contributions on GitHub</text><text x="21" y="42" style="fill: #fff; font-size: 14px;">24 Public Repos</text><text x="21" y="70" style="fill: #fff; font-size: 14px;">Joined GitHub 7 years ago</text><text x="21" y="98" style="fill: #fff; font-size: 14px;">DinoTeam</text></g><g color="#7fff00" transform="translate(295,10)"><path transform="translate(-30,0)" stroke="#7fff00" fill="#7fff00" opacity="1" d="M0,109.39999999999999C10.410958904109588,101.15806451612902,20.821917808219176,92.91612903225804,31.232876712328764,92.39999999999999C41.990867579908674,91.86666666666667,52.74885844748858,92.13333333333333,63.50684931506849,91.60000000000001C74.2648401826484,91.06666666666669,85.02283105022832,5.199999999999997,95.78082191780823,5.199999999999997C106.19178082191782,5.199999999999997,116.6027397260274,28.072554204124806,127.01369863013699,38.2C137.7716894977169,48.66502732240438,148.5296803652968,60.15096539162113,159.2876712328767,66.8C169.6986301369863,73.23454962101181,180.1095890410959,74.73837475762383,190.5205479452055,78C201.2785388127854,81.3703460837887,212.0365296803653,86.6,222.7945205479452,86.6C233.55251141552512,86.6,244.31050228310502,77.33454398708636,255.06849315068493,72C264.7853881278539,67.18170220521232,274.5022831050228,60.0180790960452,284.2191780821918,56.4C294.9771689497717,52.39426957223567,305.7351598173516,50.2,316.4931506849315,50.2C326.90410958904107,50.2,337.3150684931507,90.2,347.7260273972603,90.2C358.4840182648402,90.2,369.2420091324201,81.9,380,73.6L380,110C369.2420091324201,110,358.4840182648402,110,347.7260273972603,110C337.3150684931507,110,326.90410958904107,110,316.4931506849315,110C305.7351598173516,110,294.9771689497717,110,284.2191780821918,110C274.5022831050228,110,264.7853881278539,110,255.06849315068493,110C244.31050228310502,110,233.55251141552512,110,222.7945205479452,110C212.0365296803653,110,201.2785388127854,110,190.5205479452055,110C180.1095890410959,110,169.6986301369863,110,159.2876712328767,110C148.5296803652968,110,137.7716894977169,110,127.01369863013699,110C116.6027397260274,110,106.19178082191782,110,95.78082191780823,110C85.02283105022832,110,74.2648401826484,110,63.50684931506849,110C52.74885844748858,110,41.990867579908674,110,31.232876712328764,110C20.821917808219176,110,10.410958904109588,110,0,110Z" /><g color="#fff" transform="translate(-30,110)" fill="none" font-size="10" font-family="sans-serif" text-anchor="middle"><path class="domain" stroke="currentColor" d="M0.5,6V0.5H380.5V6" /><g class="tick" opacity="1" transform="translate(0.5,0)"><line stroke="currentColor" y2="6" /><text fill="currentColor" y="9" dy="0.71em">25/06</text></g><g class="tick" opacity="1" transform="translate(64.0068493150685,0)"><line stroke="currentColor" y2="6" /><text fill="currentColor" y="9" dy="0.71em">25/08</text></g><g class="tick" opacity="1" transform="translate(127.51369863013699,0)"><line stroke="currentColor" y2="6" /><text fill="currentColor" y="9" dy="0.71em">25/10</text></g><g class="tick" opacity="1" transform="translate(191.0205479452055,0)"><line stroke="currentColor" y2="6" /><text fill="currentColor" y="9" dy="0.71em">25/12</text></g><g class="tick" opacity="1" transform="translate(255.56849315068493,0)"><line stroke="currentColor" y2="6" /><text fill="currentColor" y="9" dy="0.71em">26/02</text></g><g class="tick" opacity="1" transform="translate(316.9931506849315,0)"><line stroke="currentColor" y2="6" /><text fill="currentColor" y="9" dy="0.71em">26/04</text></g><g class="tick" opacity="1" transform="translate(380.5,0)"><line stroke="currentColor" y2="6" /><text fill="currentColor" y="9" dy="0.71em">26/06</text></g></g><g color="#fff" transform="translate(350,0)" fill="none" font-size="10" font-family="sans-serif" text-anchor="start"><path class="domain" stroke="currentColor" d="M6,110.5H0.5V0.5H6" /><g class="tick" opacity="1" transform="translate(0,110.5)"><line stroke="currentColor" x2="6" /><text fill="currentColor" x="9" dy="0.32em">0</text></g><g class="tick" opacity="1" transform="translate(0,100.5)"><line stroke="currentColor" x2="6" /><text fill="currentColor" x="9" dy="0.32em">50</text></g><g class="tick" opacity="1" transform="translate(0,90.5)"><line stroke="currentColor" x2="6" /><text fill="currentColor" x="9" dy="0.32em">100</text></g><g class="tick" opacity="1" transform="translate(0,80.5)"><line stroke="currentColor" x2="6" /><text fill="currentColor" x="9" dy="0.32em">150</text></g><g class="tick" opacity="1" transform="translate(0,70.5)"><line stroke="currentColor" x2="6" /><text fill="currentColor" x="9" dy="0.32em">200</text></g><g class="tick" opacity="1" transform="translate(0,60.49999999999999)"><line stroke="currentColor" x2="6" /><text fill="currentColor" x="9" dy="0.32em">250</text></g><g class="tick" opacity="1" transform="translate(0,50.50000000000001)"><line stroke="currentColor" x2="6" /><text fill="currentColor" x="9" dy="0.32em">300</text></g><g class="tick" opacity="1" transform="translate(0,40.5)"><line stroke="currentColor" x2="6" /><text fill="currentColor" x="9" dy="0.32em">350</text></g><g class="tick" opacity="1" transform="translate(0,30.499999999999996)"><line stroke="currentColor" x2="6" /><text fill="currentColor" x="9" dy="0.32em">400</text></g><g class="tick" opacity="1" transform="translate(0,20.499999999999993)"><line stroke="currentColor" x2="6" /><text fill="currentColor" x="9" dy="0.32em">450</text></g><g class="tick" opacity="1" transform="translate(0,10.500000000000004)"><line stroke="currentColor" x2="6" /><text fill="currentColor" x="9" dy="0.32em">500</text></g><g class="tick" opacity="1" transform="translate(0,0.5)"><line stroke="currentColor" x2="6" /><text fill="currentColor" x="9" dy="0.32em">550</text></g></g><g><text y="-15" x="230" style="fill: #fff; font-size: 10px;">contributions in the last year</text></g></g></g></svg>

  <!-- Stats Card (Inlined) -->
  <rect x="15" y="245" width="455" height="195" fill="none" stroke="#33cc66" stroke-width="2"/>
  <svg xmlns="http://www.w3.org/2000/svg" width="451" height="191" viewBox="0 0 467 195" fill="none" role="img" aria-labelledby="descId" x="17" y="247">
        <title id="titleId">AS1's GitHub Stats, Rank: A-</title>
        <desc id="descId">Total Stars Earned: 76, Total Commits  (last year) : 1459, Total PRs: 101, Total Issues: 6, Contributed to (last year): 8</desc>
        <style>
          .header {
            font: 600 18px 'Segoe UI', Ubuntu, Sans-Serif;
            fill: #ffcc00;
            animation: fadeInAnimation 0.8s ease-in-out forwards;
          }
          @supports(-moz-appearance: auto) {
            /* Selector detects Firefox */
            .header { font-size: 15.5px; }
          }
          
    .stat {
      font: 600 14px 'Segoe UI', Ubuntu, "Helvetica Neue", Sans-Serif; fill: #33cc66;
    }
    @supports(-moz-appearance: auto) {
      /* Selector detects Firefox */
      .stat { font-size:12px; }
    }
    .stagger {
      opacity: 0;
      animation: fadeInAnimation 0.3s ease-in-out forwards;
    }
    .rank-text {
      font: 800 24px 'Segoe UI', Ubuntu, Sans-Serif; fill: #33cc66;
      animation: scaleInAnimation 0.3s ease-in-out forwards;
    }
    .rank-percentile-header {
      font-size: 14px;
    }
    .rank-percentile-text {
      font-size: 16px;
    }
    
    .not_bold { font-weight: 400 }
    .bold { font-weight: 700 }
    .icon {
      fill: #33cc66;
      display: block;
    }

    .rank-circle-rim {
      stroke: #ffcc00;
      fill: none;
      stroke-width: 6;
      opacity: 0.2;
    }
    .rank-circle {
      stroke: #ffcc00;
      stroke-dasharray: 250;
      fill: none;
      stroke-width: 6;
      stroke-linecap: round;
      opacity: 0.8;
      transform-origin: -10px 8px;
      transform: rotate(-90deg);
      animation: rankAnimation 1s forwards ease-in-out;
    }
    
    @keyframes rankAnimation {
      from {
        stroke-dashoffset: 251.32741228718345;
      }
      to {
        stroke-dashoffset: 88.55815366712224;
      }
    }
  
  

          
      /* Animations */
      @keyframes scaleInAnimation {
        from {
          transform: translate(-5px, 5px) scale(0);
        }
        to {
          transform: translate(-5px, 5px) scale(1);
        }
      }
      @keyframes fadeInAnimation {
        from {
          opacity: 0;
        }
        to {
          opacity: 1;
        }
      }
    
          
        </style>

        

        <rect data-testid="card-bg" x="0.5" y="0.5" rx="4.5" height="99%" stroke="#33cc66" width="466" fill="#000000" stroke-opacity="1" />

        
      <g data-testid="card-title" transform="translate(25, 35)">
        <g transform="translate(0, 0)">
      <text x="0" y="0" class="header" data-testid="header">AS1's GitHub Stats</text>
    </g>
      </g>
    

        <g data-testid="main-card-body" transform="translate(0, 55)">
          
    <g data-testid="rank-circle" transform="translate(390.5, 47.5)">
        <circle class="rank-circle-rim" cx="-10" cy="8" r="40" />
        <circle class="rank-circle" cx="-10" cy="8" r="40" />
        <g class="rank-text">
          
        <text x="-5" y="3" alignment-baseline="central" dominant-baseline="central" text-anchor="middle" data-testid="level-rank-icon">
          A-
        </text>
      
        </g>
      </g>
    <svg x="0" y="0">
      <g transform="translate(0, 0)">
    <g class="stagger" style="animation-delay: 450ms" transform="translate(25, 0)">
      
    <svg data-testid="icon" class="icon" viewBox="0 0 16 16" version="1.1" width="16" height="16">
      <path fill-rule="evenodd" d="M8 .25a.75.75 0 01.673.418l1.882 3.815 4.21.612a.75.75 0 01.416 1.279l-3.046 2.97.719 4.192a.75.75 0 01-1.088.791L8 12.347l-3.766 1.98a.75.75 0 01-1.088-.79l.72-4.194L.818 6.374a.75.75 0 01.416-1.28l4.21-.611L7.327.668A.75.75 0 018 .25zm0 2.445L6.615 5.5a.75.75 0 01-.564.41l-3.097.45 2.24 2.184a.75.75 0 01.216.664l-.528 3.084 2.769-1.456a.75.75 0 01.698 0l2.77 1.456-.53-3.084a.75.75 0 01.216-.664l2.24-2.183-3.096-.45a.75.75 0 01-.564-.41L8 2.694v.001z" />
    </svg>
  
      <text class="stat  bold" x="25" y="12.5">Total Stars Earned:</text>
      <text class="stat  bold" x="219.01" y="12.5" data-testid="stars">76</text>
    </g>
  </g><g transform="translate(0, 25)">
    <g class="stagger" style="animation-delay: 600ms" transform="translate(25, 0)">
      
    <svg data-testid="icon" class="icon" viewBox="0 0 16 16" version="1.1" width="16" height="16">
      <path fill-rule="evenodd" d="M1.643 3.143L.427 1.927A.25.25 0 000 2.104V5.75c0 .138.112.25.25.25h3.646a.25.25 0 00.177-.427L2.715 4.215a6.5 6.5 0 11-1.18 4.458.75.75 0 10-1.493.154 8.001 8.001 0 101.6-5.684zM7.75 4a.75.75 0 01.75.75v2.992l2.028.812a.75.75 0 01-.557 1.392l-2.5-1A.75.75 0 017 8.25v-3.5A.75.75 0 017.75 4z" />
    </svg>
  
      <text class="stat  bold" x="25" y="12.5">Total Commits (last year):</text>
      <text class="stat  bold" x="219.01" y="12.5" data-testid="commits">1.5k</text>
    </g>
  </g><g transform="translate(0, 50)">
    <g class="stagger" style="animation-delay: 750ms" transform="translate(25, 0)">
      
    <svg data-testid="icon" class="icon" viewBox="0 0 16 16" version="1.1" width="16" height="16">
      <path fill-rule="evenodd" d="M7.177 3.073L9.573.677A.25.25 0 0110 .854v4.792a.25.25 0 01-.427.177L7.177 3.427a.25.25 0 010-.354zM3.75 2.5a.75.75 0 100 1.5.75.75 0 000-1.5zm-2.25.75a2.25 2.25 0 113 2.122v5.256a2.251 2.251 0 11-1.5 0V5.372A2.25 2.25 0 011.5 3.25zM11 2.5h-1V4h1a1 1 0 011 1v5.628a2.251 2.251 0 101.5 0V5A2.5 2.5 0 0011 2.5zm1 10.25a.75.75 0 111.5 0 .75.75 0 01-1.5 0zM3.75 12a.75.75 0 100 1.5.75.75 0 000-1.5z" />
    </svg>
  
      <text class="stat  bold" x="25" y="12.5">Total PRs:</text>
      <text class="stat  bold" x="219.01" y="12.5" data-testid="prs">101</text>
    </g>
  </g><g transform="translate(0, 75)">
    <g class="stagger" style="animation-delay: 900ms" transform="translate(25, 0)">
      
    <svg data-testid="icon" class="icon" viewBox="0 0 16 16" version="1.1" width="16" height="16">
      <path fill-rule="evenodd" d="M8 1.5a6.5 6.5 0 100 13 6.5 6.5 0 000-13zM0 8a8 8 0 1116 0A8 8 0 010 8zm9 3a1 1 0 11-2 0 1 1 0 012 0zm-.25-6.25a.75.75 0 00-1.5 0v3.5a.75.75 0 001.5 0v-3.5z" />
    </svg>
  
      <text class="stat  bold" x="25" y="12.5">Total Issues:</text>
      <text class="stat  bold" x="219.01" y="12.5" data-testid="issues">6</text>
    </g>
  </g><g transform="translate(0, 100)">
    <g class="stagger" style="animation-delay: 1050ms" transform="translate(25, 0)">
      
    <svg data-testid="icon" class="icon" viewBox="0 0 16 16" version="1.1" width="16" height="16">
      <path fill-rule="evenodd" d="M2 2.5A2.5 2.5 0 014.5 0h8.75a.75.75 0 01.75.75v12.5a.75.75 0 01-.75.75h-2.5a.75.75 0 110-1.5h1.75v-2h-8a1 1 0 00-.714 1.7.75.75 0 01-1.072 1.05A2.495 2.495 0 012 11.5v-9zm10.5-1V9h-8c-.356 0-.694.074-1 .208V2.5a1 1 0 011-1h8zM5 12.25v3.25a.25.25 0 00.4.2l1.45-1.087a.25.25 0 01.3 0L8.6 15.7a.25.25 0 00.4-.2v-3.25a.25.25 0 00-.25-.25h-3.5a.25.25 0 00-.25.25z" />
    </svg>
  
      <text class="stat  bold" x="25" y="12.5">Contributed to (last year):</text>
      <text class="stat  bold" x="219.01" y="12.5" data-testid="contribs">8</text>
    </g>
  </g>
    </svg>
  
        </g>
      </svg>

  <!-- Languages Card (Inlined) -->
  <rect x="485" y="245" width="300" height="195" fill="none" stroke="#33cc66" stroke-width="2"/>
  <svg xmlns="http://www.w3.org/2000/svg" width="296" height="191" viewBox="0 0 300 165" fill="none" role="img" aria-labelledby="descId" x="487" y="247">
        <title id="titleId" />
        <desc id="descId" />
        <style>
          .header {
            font: 600 18px 'Segoe UI', Ubuntu, Sans-Serif;
            fill: #ffcc00;
            animation: fadeInAnimation 0.8s ease-in-out forwards;
          }
          @supports(-moz-appearance: auto) {
            /* Selector detects Firefox */
            .header { font-size: 15.5px; }
          }
          
    @keyframes slideInAnimation {
      from {
        width: 0;
      }
      to {
        width: calc(100%-100px);
      }
    }
    @keyframes growWidthAnimation {
      from {
        width: 0;
      }
      to {
        width: 100%;
      }
    }
    .stat {
      font: 600 14px 'Segoe UI', Ubuntu, "Helvetica Neue", Sans-Serif; fill: #33cc66;
    }
    @supports(-moz-appearance: auto) {
      /* Selector detects Firefox */
      .stat { font-size:12px; }
    }
    .bold { font-weight: 700 }
    .lang-name {
      font: 400 11px "Segoe UI", Ubuntu, Sans-Serif;
      fill: #33cc66;
    }
    .stagger {
      opacity: 0;
      animation: fadeInAnimation 0.3s ease-in-out forwards;
    }
    #rect-mask rect{
      animation: slideInAnimation 1s ease-in-out forwards;
    }
    .lang-progress{
      animation: growWidthAnimation 0.6s ease-in-out forwards;
    }
    

          
      /* Animations */
      @keyframes scaleInAnimation {
        from {
          transform: translate(-5px, 5px) scale(0);
        }
        to {
          transform: translate(-5px, 5px) scale(1);
        }
      }
      @keyframes fadeInAnimation {
        from {
          opacity: 0;
        }
        to {
          opacity: 1;
        }
      }
    
          
        </style>

        

        <rect data-testid="card-bg" x="0.5" y="0.5" rx="4.5" height="99%" stroke="#33cc66" width="299" fill="#000000" stroke-opacity="1" />

        
      <g data-testid="card-title" transform="translate(25, 35)">
        <g transform="translate(0, 0)">
      <text x="0" y="0" class="header" data-testid="header">Most Used Languages</text>
    </g>
      </g>
    

        <g data-testid="main-card-body" transform="translate(0, 55)">
          
    <svg data-testid="lang-items" x="25">
      
  
      <mask id="rect-mask">
          <rect x="0" y="0" width="250" height="8" fill="white" rx="5" />
        </mask>
        
        <rect mask="url(#rect-mask)" data-testid="lang-progress" x="0" y="0" width="220.46" height="8" fill="#3572A5" />
      
        <rect mask="url(#rect-mask)" data-testid="lang-progress" x="220.46" y="0" width="17.25" height="8" fill="#41b883" />
      
        <rect mask="url(#rect-mask)" data-testid="lang-progress" x="237.71" y="0" width="16.81" height="8" fill="#f1e05a" />
      
        <rect mask="url(#rect-mask)" data-testid="lang-progress" x="244.52" y="0" width="13.09" height="8" fill="#178600" />
      
        <rect mask="url(#rect-mask)" data-testid="lang-progress" x="247.61" y="0" width="11.31" height="8" fill="#e34c26" />
      
        <rect mask="url(#rect-mask)" data-testid="lang-progress" x="248.92000000000002" y="0" width="11.08" height="8" fill="#663399" />
      
      
    <g transform="translate(0, 25)">
      <g transform="translate(0, 0)"><g transform="translate(0, 0)">
    <g class="stagger" style="animation-delay: 450ms">
      <circle cx="5" cy="6" r="5" fill="#3572A5" />
      <text data-testid="lang-name" x="15" y="10" class="lang-name">
        Python 88.19%
      </text>
    </g>
  </g><g transform="translate(0, 25)">
    <g class="stagger" style="animation-delay: 600ms">
      <circle cx="5" cy="6" r="5" fill="#41b883" />
      <text data-testid="lang-name" x="15" y="10" class="lang-name">
        Vue 6.90%
      </text>
    </g>
  </g><g transform="translate(0, 50)">
    <g class="stagger" style="animation-delay: 750ms">
      <circle cx="5" cy="6" r="5" fill="#f1e05a" />
      <text data-testid="lang-name" x="15" y="10" class="lang-name">
        JavaScript 2.72%
      </text>
    </g>
  </g></g><g transform="translate(150, 0)"><g transform="translate(0, 0)">
    <g class="stagger" style="animation-delay: 450ms">
      <circle cx="5" cy="6" r="5" fill="#178600" />
      <text data-testid="lang-name" x="15" y="10" class="lang-name">
        C# 1.24%
      </text>
    </g>
  </g><g transform="translate(0, 25)">
    <g class="stagger" style="animation-delay: 600ms">
      <circle cx="5" cy="6" r="5" fill="#e34c26" />
      <text data-testid="lang-name" x="15" y="10" class="lang-name">
        HTML 0.52%
      </text>
    </g>
  </g><g transform="translate(0, 50)">
    <g class="stagger" style="animation-delay: 750ms">
      <circle cx="5" cy="6" r="5" fill="#663399" />
      <text data-testid="lang-name" x="15" y="10" class="lang-name">
        CSS 0.43%
      </text>
    </g>
  </g></g>
    </g>
  
    </svg>
  
        </g>
      </svg>
</svg>