<svg xmlns="http://www.w3.org/2000/svg" width="800" height="430" viewBox="0 0 800 430">
  <defs>
    <pattern id="bg-grid" width="30" height="30" patternUnits="userSpaceOnUse">
      <path d="M 30 0 L 0 0 0 30" fill="none" stroke="#33cc66" stroke-width="0.5" opacity="0.3" />
    </pattern>
  </defs>
  <style>
    .monospace { font-family: monospace, Courier, fixed; }
    .text-green-dim { fill: #33cc66; opacity: 0.65; }
    .text-gold { fill: #ffcc00; }
    .text-white { fill: #ffffff; }
    @keyframes drawPath {
      from { stroke-dashoffset: 1200; }
      to { stroke-dashoffset: 0; }
    }
    @keyframes fadeInFill {
      from { opacity: 0; }
      to { opacity: 1; }
    }
    .chart-line {
      stroke-dasharray: 1200;
      stroke-dashoffset: 1200;
      animation: drawPath 2.5s ease-out forwards;
      animation-delay: 1.5s;
    }
    .chart-fill {
      opacity: 0;
      animation: fadeInFill 1.5s ease-out forwards;
      animation-delay: 3.5s;
    }
  </style>
  <rect x="0" y="0" width="800" height="430" fill="#000000"/>
  <rect x="0" y="0" width="800" height="430" fill="url(#bg-grid)"/>
  <path d="M 0,0 L 0,430 L 800,430 L 800,0" stroke="#33cc66" stroke-width="4" fill="none"/>
  <!-- Section Header -->
  <rect x="2" y="0" width="796" height="30" fill="#051a08" stroke="#33cc66" stroke-width="2"/>
  <text x="20" y="21" class="monospace text-gold" font-size="16" font-weight="bold">[ BIOMETRIC METRICS &amp; PERFORMANCE GRAPH ]</text>

  <!-- Summary Card Bounding Box -->
  <rect x="15" y="45" width="770" height="180" fill="none" stroke="#33cc66" stroke-width="2"/>
  <g transform="translate(15, 45)">
    <!-- Terminal Headers -->
    <text x="15" y="30" class="monospace text-gold" font-size="15" font-weight="bold">&gt; GITHUB PROFILE STATUS</text>
    
    <!-- User Stats List -->
    <g transform="translate(15, 60)" font-size="12" class="monospace">
      <text x="0" y="0" class="text-green-dim">TOTAL COMMITS:<tspan x="150" class="text-white">5.1k</tspan></text>
      <text x="0" y="22" class="text-green-dim">PUBLIC REPOS:<tspan x="150" class="text-white">24</tspan></text>
      <text x="0" y="44" class="text-green-dim">YEARS ACTIVE:<tspan x="150" class="text-white">7 years ago</tspan></text>
      <text x="0" y="66" class="text-green-dim">PULL REQUESTS:<tspan x="150" class="text-white">101</tspan></text>
    </g>

    <!-- Glowing chart gradient definition -->
    <defs>
      <linearGradient id="chart-grad" x1="0" y1="0" x2="0" y2="1">
        <stop offset="0%" stop-color="#33cc66" stop-opacity="0.35"/>
        <stop offset="100%" stop-color="#33cc66" stop-opacity="0.0"/>
      </linearGradient>
    </defs>

    <!-- Custom Neon Commits Chart -->
    <svg x="260" y="20" width="495" height="140" viewBox="0 0 380 110" preserveAspectRatio="none">
      <!-- Cyberpunk Grid Lines -->
      <line x1="0" y1="27.5" x2="380" y2="27.5" stroke="#33cc66" stroke-width="0.5" opacity="0.1" stroke-dasharray="2 2" />
      <line x1="0" y1="55" x2="380" y2="55" stroke="#33cc66" stroke-width="0.5" opacity="0.1" stroke-dasharray="2 2" />
      <line x1="0" y1="82.5" x2="380" y2="82.5" stroke="#33cc66" stroke-width="0.5" opacity="0.1" stroke-dasharray="2 2" />
      
      <line x1="95" y1="0" x2="95" y2="110" stroke="#33cc66" stroke-width="0.5" opacity="0.1" stroke-dasharray="2 2" />
      <line x1="190" y1="0" x2="190" y2="110" stroke="#33cc66" stroke-width="0.5" opacity="0.1" stroke-dasharray="2 2" />
      <line x1="285" y1="0" x2="285" y2="110" stroke="#33cc66" stroke-width="0.5" opacity="0.1" stroke-dasharray="2 2" />

      <!-- Chart Area Fill -->
      <path d="M0,109.3C10.4,101.1,20.8,92.9,31.2,92.3C41.9,91.8,52.7,92.1,63.5,91.6C74.2,91.0,85.0,5.1,95.7,5.1C106.1,5.1,116.6,28.0,127.0,38.2C137.7,48.6,148.5,60.1,159.2,66.8C169.6,73.2,180.1,74.7,190.5,78.0C201.2,81.3,212.0,86.6,222.7,86.6C233.5,86.6,244.3,77.3,255.0,72.0C264.7,67.1,274.5,60.0,284.2,56.4C294.9,52.3,305.7,50.2,316.4,50.2C326.9,50.2,337.3,90.2,347.7,90.2C358.4,90.2,369.2,81.9,380.0,73.6L380.0,110.0L0.0,110.0Z" fill="url(#chart-grad)" stroke="none" class="chart-fill" />
      
      <!-- Chart Line Stroke -->
      <path d="M0,109.3C10.4,101.1,20.8,92.9,31.2,92.3C41.9,91.8,52.7,92.1,63.5,91.6C74.2,91.0,85.0,5.1,95.7,5.1C106.1,5.1,116.6,28.0,127.0,38.2C137.7,48.6,148.5,60.1,159.2,66.8C169.6,73.2,180.1,74.7,190.5,78.0C201.2,81.3,212.0,86.6,222.7,86.6C233.5,86.6,244.3,77.3,255.0,72.0C264.7,67.1,274.5,60.0,284.2,56.4C294.9,52.3,305.7,50.2,316.4,50.2C326.9,50.2,337.3,90.2,347.7,90.2C358.4,90.2,369.2,81.9,380.0,73.6" fill="none" stroke="#33cc66" stroke-width="2" class="chart-line" />
    </svg>
  </g>

  <svg xmlns="http://www.w3.org/2000/svg" width="407" height="170" viewBox="0 0 467 195" fill="none" role="img" aria-labelledby="descId" x="17" y="245">
        <title id="titleId">AS1's GitHub Stats, Rank: A-</title>
        <desc id="descId">Total Stars Earned: 82, Total Commits  (last year) : 1466, Total PRs: 115, Total Issues: 6, Contributed to (last year): 15</desc>
        <style>
          .header {
            font: 600 18px 'Segoe UI', Ubuntu, Sans-Serif;
            fill: #ffcc00;
            animation: fadeInAnimation 0.8s ease-in-out forwards;
          }
          @supports(-moz-appearance: auto) {
            /* Selector detects Firefox */
            .header { font-size: 15.5px; }
          }
          
    .stat {
      font: 600 14px 'Segoe UI', Ubuntu, "Helvetica Neue", Sans-Serif; fill: #33cc66;
    }
    @supports(-moz-appearance: auto) {
      /* Selector detects Firefox */
      .stat { font-size:12px; }
    }
    .stagger {
      opacity: 0;
      animation: fadeInAnimation 0.3s ease-in-out forwards;
    }
    .rank-text {
      font: 800 24px 'Segoe UI', Ubuntu, Sans-Serif; fill: #33cc66;
      animation: scaleInAnimation 0.3s ease-in-out forwards;
    }
    .rank-percentile-header {
      font-size: 14px;
    }
    .rank-percentile-text {
      font-size: 16px;
    }
    
    .not_bold { font-weight: 400 }
    .bold { font-weight: 700 }
    .icon {
      fill: #33cc66;
      display: block;
    }

    .rank-circle-rim {
      stroke: #ffcc00;
      fill: none;
      stroke-width: 6;
      opacity: 0.2;
    }
    .rank-circle {
      stroke: #ffcc00;
      stroke-dasharray: 250;
      fill: none;
      stroke-width: 6;
      stroke-linecap: round;
      opacity: 0.8;
      transform-origin: -10px 8px;
      transform: rotate(-90deg);
      animation: rankAnimation 1s forwards ease-in-out;
    }
    
    @keyframes rankAnimation {
      from {
        stroke-dashoffset: 251.32741228718345;
      }
      to {
        stroke-dashoffset: 84.30007517774693;
      }
    }
  
  

          
      /* Animations */
      @keyframes scaleInAnimation {
        from {
          transform: translate(-5px, 5px) scale(0);
        }
        to {
          transform: translate(-5px, 5px) scale(1);
        }
      }
      @keyframes fadeInAnimation {
        from {
          opacity: 0;
        }
        to {
          opacity: 1;
        }
      }
    
          
        </style>

        

        <rect data-testid="card-bg" x="0.5" y="0.5" rx="4.5" height="99%" stroke="#33cc66" width="466" fill="#000000" stroke-opacity="1" />

        
      <g data-testid="card-title" transform="translate(25, 35)">
        <g transform="translate(0, 0)">
      <text x="0" y="0" class="header" data-testid="header">AS1's GitHub Stats</text>
    </g>
      </g>
    

        <g data-testid="main-card-body" transform="translate(0, 55)">
          
    <g data-testid="rank-circle" transform="translate(390.5, 47.5)">
        <circle class="rank-circle-rim" cx="-10" cy="8" r="40" />
        <circle class="rank-circle" cx="-10" cy="8" r="40" />
        <g class="rank-text">
          
        <text x="-5" y="3" alignment-baseline="central" dominant-baseline="central" text-anchor="middle" data-testid="level-rank-icon">
          A-
        </text>
      
        </g>
      </g>
    <svg x="0" y="0">
      <g transform="translate(0, 0)">
    <g class="stagger" style="animation-delay: 450ms" transform="translate(25, 0)">
      
    <svg data-testid="icon" class="icon" viewBox="0 0 16 16" version="1.1" width="16" height="16">
      <path fill-rule="evenodd" d="M8 .25a.75.75 0 01.673.418l1.882 3.815 4.21.612a.75.75 0 01.416 1.279l-3.046 2.97.719 4.192a.75.75 0 01-1.088.791L8 12.347l-3.766 1.98a.75.75 0 01-1.088-.79l.72-4.194L.818 6.374a.75.75 0 01.416-1.28l4.21-.611L7.327.668A.75.75 0 018 .25zm0 2.445L6.615 5.5a.75.75 0 01-.564.41l-3.097.45 2.24 2.184a.75.75 0 01.216.664l-.528 3.084 2.769-1.456a.75.75 0 01.698 0l2.77 1.456-.53-3.084a.75.75 0 01.216-.664l2.24-2.183-3.096-.45a.75.75 0 01-.564-.41L8 2.694v.001z" />
    </svg>
  
      <text class="stat  bold" x="25" y="12.5">Total Stars Earned:</text>
      <text class="stat  bold" x="219.01" y="12.5" data-testid="stars">82</text>
    </g>
  </g><g transform="translate(0, 25)">
    <g class="stagger" style="animation-delay: 600ms" transform="translate(25, 0)">
      
    <svg data-testid="icon" class="icon" viewBox="0 0 16 16" version="1.1" width="16" height="16">
      <path fill-rule="evenodd" d="M1.643 3.143L.427 1.927A.25.25 0 000 2.104V5.75c0 .138.112.25.25.25h3.646a.25.25 0 00.177-.427L2.715 4.215a6.5 6.5 0 11-1.18 4.458.75.75 0 10-1.493.154 8.001 8.001 0 101.6-5.684zM7.75 4a.75.75 0 01.75.75v2.992l2.028.812a.75.75 0 01-.557 1.392l-2.5-1A.75.75 0 017 8.25v-3.5A.75.75 0 017.75 4z" />
    </svg>
  
      <text class="stat  bold" x="25" y="12.5">Total Commits (last year):</text>
      <text class="stat  bold" x="219.01" y="12.5" data-testid="commits">1.5k</text>
    </g>
  </g><g transform="translate(0, 50)">
    <g class="stagger" style="animation-delay: 750ms" transform="translate(25, 0)">
      
    <svg data-testid="icon" class="icon" viewBox="0 0 16 16" version="1.1" width="16" height="16">
      <path fill-rule="evenodd" d="M7.177 3.073L9.573.677A.25.25 0 0110 .854v4.792a.25.25 0 01-.427.177L7.177 3.427a.25.25 0 010-.354zM3.75 2.5a.75.75 0 100 1.5.75.75 0 000-1.5zm-2.25.75a2.25 2.25 0 113 2.122v5.256a2.251 2.251 0 11-1.5 0V5.372A2.25 2.25 0 011.5 3.25zM11 2.5h-1V4h1a1 1 0 011 1v5.628a2.251 2.251 0 101.5 0V5A2.5 2.5 0 0011 2.5zm1 10.25a.75.75 0 111.5 0 .75.75 0 01-1.5 0zM3.75 12a.75.75 0 100 1.5.75.75 0 000-1.5z" />
    </svg>
  
      <text class="stat  bold" x="25" y="12.5">Total PRs:</text>
      <text class="stat  bold" x="219.01" y="12.5" data-testid="prs">115</text>
    </g>
  </g><g transform="translate(0, 75)">
    <g class="stagger" style="animation-delay: 900ms" transform="translate(25, 0)">
      
    <svg data-testid="icon" class="icon" viewBox="0 0 16 16" version="1.1" width="16" height="16">
      <path fill-rule="evenodd" d="M8 1.5a6.5 6.5 0 100 13 6.5 6.5 0 000-13zM0 8a8 8 0 1116 0A8 8 0 010 8zm9 3a1 1 0 11-2 0 1 1 0 012 0zm-.25-6.25a.75.75 0 00-1.5 0v3.5a.75.75 0 001.5 0v-3.5z" />
    </svg>
  
      <text class="stat  bold" x="25" y="12.5">Total Issues:</text>
      <text class="stat  bold" x="219.01" y="12.5" data-testid="issues">6</text>
    </g>
  </g><g transform="translate(0, 100)">
    <g class="stagger" style="animation-delay: 1050ms" transform="translate(25, 0)">
      
    <svg data-testid="icon" class="icon" viewBox="0 0 16 16" version="1.1" width="16" height="16">
      <path fill-rule="evenodd" d="M2 2.5A2.5 2.5 0 014.5 0h8.75a.75.75 0 01.75.75v12.5a.75.75 0 01-.75.75h-2.5a.75.75 0 110-1.5h1.75v-2h-8a1 1 0 00-.714 1.7.75.75 0 01-1.072 1.05A2.495 2.495 0 012 11.5v-9zm10.5-1V9h-8c-.356 0-.694.074-1 .208V2.5a1 1 0 011-1h8zM5 12.25v3.25a.25.25 0 00.4.2l1.45-1.087a.25.25 0 01.3 0L8.6 15.7a.25.25 0 00.4-.2v-3.25a.25.25 0 00-.25-.25h-3.5a.25.25 0 00-.25.25z" />
    </svg>
  
      <text class="stat  bold" x="25" y="12.5">Contributed to (last year):</text>
      <text class="stat  bold" x="219.01" y="12.5" data-testid="contribs">15</text>
    </g>
  </g>
    </svg>
  
        </g>
      </svg>

  <svg xmlns="http://www.w3.org/2000/svg" width="309" height="170" viewBox="0 0 300 165" fill="none" role="img" aria-labelledby="descId" x="474" y="245">
        <title id="titleId" />
        <desc id="descId" />
        <style>
          .header {
            font: 600 18px 'Segoe UI', Ubuntu, Sans-Serif;
            fill: #ffcc00;
            animation: fadeInAnimation 0.8s ease-in-out forwards;
          }
          @supports(-moz-appearance: auto) {
            /* Selector detects Firefox */
            .header { font-size: 15.5px; }
          }
          
    @keyframes slideInAnimation {
      from {
        width: 0;
      }
      to {
        width: calc(100%-100px);
      }
    }
    @keyframes growWidthAnimation {
      from {
        width: 0;
      }
      to {
        width: 100%;
      }
    }
    .stat {
      font: 600 14px 'Segoe UI', Ubuntu, "Helvetica Neue", Sans-Serif; fill: #33cc66;
    }
    @supports(-moz-appearance: auto) {
      /* Selector detects Firefox */
      .stat { font-size:12px; }
    }
    .bold { font-weight: 700 }
    .lang-name {
      font: 400 11px "Segoe UI", Ubuntu, Sans-Serif;
      fill: #33cc66;
    }
    .stagger {
      opacity: 0;
      animation: fadeInAnimation 0.3s ease-in-out forwards;
    }
    #rect-mask rect{
      animation: slideInAnimation 1s ease-in-out forwards;
    }
    .lang-progress{
      animation: growWidthAnimation 0.6s ease-in-out forwards;
    }
    

          
      /* Animations */
      @keyframes scaleInAnimation {
        from {
          transform: translate(-5px, 5px) scale(0);
        }
        to {
          transform: translate(-5px, 5px) scale(1);
        }
      }
      @keyframes fadeInAnimation {
        from {
          opacity: 0;
        }
        to {
          opacity: 1;
        }
      }
    
          
        </style>

        

        <rect data-testid="card-bg" x="0.5" y="0.5" rx="4.5" height="99%" stroke="#33cc66" width="299" fill="#000000" stroke-opacity="1" />

        
      <g data-testid="card-title" transform="translate(25, 35)">
        <g transform="translate(0, 0)">
      <text x="0" y="0" class="header" data-testid="header">Most Used Languages</text>
    </g>
      </g>
    

        <g data-testid="main-card-body" transform="translate(0, 55)">
          
    <svg data-testid="lang-items" x="25">
      
  
      <mask id="rect-mask">
          <rect x="0" y="0" width="250" height="8" fill="white" rx="5" />
        </mask>
        
        <rect mask="url(#rect-mask)" data-testid="lang-progress" x="0" y="0" width="187.07" height="8" fill="#3572A5" />
      
        <rect mask="url(#rect-mask)" data-testid="lang-progress" x="187.07" y="0" width="25.13" height="8" fill="#41b883" />
      
        <rect mask="url(#rect-mask)" data-testid="lang-progress" x="212.2" y="0" width="24.33" height="8" fill="#355570" />
      
        <rect mask="url(#rect-mask)" data-testid="lang-progress" x="236.52999999999997" y="0" width="19.57" height="8" fill="#f1e05a" />
      
        <rect mask="url(#rect-mask)" data-testid="lang-progress" x="246.09999999999997" y="0" width="12.379999999999999" height="8" fill="#178600" />
      
        <rect mask="url(#rect-mask)" data-testid="lang-progress" x="248.47999999999996" y="0" width="11.52" height="8" fill="#663399" />
      
      
    <g transform="translate(0, 25)">
      <g transform="translate(0, 0)"><g transform="translate(0, 0)">
    <g class="stagger" style="animation-delay: 450ms">
      <circle cx="5" cy="6" r="5" fill="#3572A5" />
      <text data-testid="lang-name" x="15" y="10" class="lang-name">
        Python 74.83%
      </text>
    </g>
  </g><g transform="translate(0, 25)">
    <g class="stagger" style="animation-delay: 600ms">
      <circle cx="5" cy="6" r="5" fill="#41b883" />
      <text data-testid="lang-name" x="15" y="10" class="lang-name">
        Vue 10.05%
      </text>
    </g>
  </g><g transform="translate(0, 50)">
    <g class="stagger" style="animation-delay: 750ms">
      <circle cx="5" cy="6" r="5" fill="#355570" />
      <text data-testid="lang-name" x="15" y="10" class="lang-name">
        GDScript 9.73%
      </text>
    </g>
  </g></g><g transform="translate(150, 0)"><g transform="translate(0, 0)">
    <g class="stagger" style="animation-delay: 450ms">
      <circle cx="5" cy="6" r="5" fill="#f1e05a" />
      <text data-testid="lang-name" x="15" y="10" class="lang-name">
        JavaScript 3.83%
      </text>
    </g>
  </g><g transform="translate(0, 25)">
    <g class="stagger" style="animation-delay: 600ms">
      <circle cx="5" cy="6" r="5" fill="#178600" />
      <text data-testid="lang-name" x="15" y="10" class="lang-name">
        C# 0.95%
      </text>
    </g>
  </g><g transform="translate(0, 50)">
    <g class="stagger" style="animation-delay: 750ms">
      <circle cx="5" cy="6" r="5" fill="#663399" />
      <text data-testid="lang-name" x="15" y="10" class="lang-name">
        CSS 0.61%
      </text>
    </g>
  </g></g>
    </g>
  
    </svg>
  
        </g>
      </svg>
</svg>