<svg xmlns="http://www.w3.org/2000/svg" width="800" height="645" viewBox="0 0 800 645">
  <defs>
    <pattern id="bg-grid" width="30" height="30" patternUnits="userSpaceOnUse">
      <path d="M 30 0 L 0 0 0 30" fill="none" stroke="#33cc66" stroke-width="0.5" opacity="0.25" />
    </pattern>
  </defs>
  <style>
    .monospace { font-family: monospace, Courier, fixed; }
    .text-green { fill: #33cc66; }
    .text-green-dim { fill: #33cc66; opacity: 0.65; }
    .text-gold { fill: #ffcc00; }
    .text-white { fill: #ffffff; }
    @keyframes drawPath {
      from { stroke-dashoffset: 6000; }
      to { stroke-dashoffset: 0; }
    }
    @keyframes fadeInFill {
      from { opacity: 0; }
      to { opacity: 1; }
    }
    .chart-line-g1 {
      stroke-dasharray: 6000;
      stroke-dashoffset: 6000;
      animation: drawPath 2.5s ease-out forwards;
      animation-delay: 1.5s;
    }
    .chart-line-g2 {
      stroke-dasharray: 6000;
      stroke-dashoffset: 6000;
      animation: drawPath 4.0s ease-out forwards;
      animation-delay: 1.5s;
    }
    .chart-fill {
      opacity: 0;
      animation: fadeInFill 1.5s ease-out forwards;
      animation-delay: 3.5s;
    }
  </style>
  <rect x="0" y="0" width="800" height="645" fill="#000000"/>
  <path d="M 0,0 L 0,645 L 800,645 L 800,0" stroke="#33cc66" stroke-width="4" fill="none"/>
  <!-- Section Header -->
  <rect x="2" y="0" width="796" height="30" fill="#051a08" stroke="#33cc66" stroke-width="2"/>
  <text x="20" y="21" class="monospace text-gold" font-size="16" font-weight="bold">[ BIOMETRIC METRICS &amp; PERFORMANCE GRAPH ]</text>

  <!-- ═══ ROW 1: GitHub Stats (left) + Graph 1 This Year (right) ═══ -->
  <rect x="15" y="42" width="375" height="200" fill="none" stroke="#33cc66" stroke-width="2"/>
  <g transform="translate(15,42)">
    <text x="188" y="20" class="monospace text-green-dim" font-size="9" text-anchor="middle">[ GITHUB STATISTICS ]</text>
    <g transform="translate(15,35)" font-size="11" class="monospace">
      <text x="0" y="10"  class="text-green" font-weight="bold">TOTAL STARS:<tspan x="148" class="text-white" font-weight="normal">82</tspan></text>
      <text x="0" y="32"  class="text-green" font-weight="bold">TOTAL COMMITS:<tspan x="148" class="text-white" font-weight="normal">1465</tspan></text>
      <text x="0" y="54"  class="text-green" font-weight="bold">PULL REQUESTS:<tspan x="148" class="text-white" font-weight="normal">115</tspan></text>
      <text x="0" y="76"  class="text-green" font-weight="bold">TOTAL ISSUES:<tspan x="148" class="text-white" font-weight="normal">6</tspan></text>
      <text x="0" y="98"  class="text-green" font-weight="bold">CONTRIBUTED TO:<tspan x="148" class="text-white" font-weight="normal">24</tspan></text>
      <text x="0" y="120" class="text-green" font-weight="bold">YEARS ACTIVE:<tspan x="148" class="text-white" font-weight="normal">7 years ago</tspan></text>
    </g>
    <g transform="translate(188,160)">
      <circle cx="0" cy="0" r="28" fill="none" stroke="#ffcc00" stroke-width="3" opacity="0.2"/>
      <circle cx="0" cy="0" r="28" fill="none" stroke="#ffcc00" stroke-width="3" stroke-dasharray="176" stroke-dashoffset="44" stroke-linecap="round"/>
      <text x="0" y="7"  class="monospace text-gold" font-size="17" text-anchor="middle" font-weight="bold">A-</text>
      <text x="0" y="40" class="monospace text-gold" font-size="7.5" text-anchor="middle">RANK</text>
    </g>
  </g>

  <rect x="400" y="42" width="383" height="200" fill="none" stroke="#33cc66" stroke-width="2"/>
  <g transform="translate(400,42)">
    <text x="20" y="22" class="monospace text-gold" font-size="12" font-weight="bold">[ COMMITS - THIS YEAR ]</text>
    <text x="363" y="22" class="monospace text-green" font-size="10" text-anchor="end" font-weight="bold">3533</text>
    <defs>
      <linearGradient id="chart-grad-ly" x1="0" y1="0" x2="0" y2="1">
        <stop offset="0%" stop-color="#33cc66" stop-opacity="0.35"/>
        <stop offset="100%" stop-color="#33cc66" stop-opacity="0.0"/>
      </linearGradient>
    </defs>
    <svg x="18" y="30" width="345" height="155" viewBox="0 0 345 155" preserveAspectRatio="none">
      <line x1="0" y1="33" x2="345" y2="33" stroke="#33cc66" stroke-width="0.5" opacity="0.08" stroke-dasharray="2 2"/>
      <line x1="0" y1="66" x2="345" y2="66" stroke="#33cc66" stroke-width="0.5" opacity="0.08" stroke-dasharray="2 2"/>
      <text x="0.0" y="115" class="monospace text-green-dim" font-size="8" text-anchor="middle">Jun</text>
        <text x="27.1" y="115" class="monospace text-green-dim" font-size="8" text-anchor="middle">Jul</text>
        <text x="54.1" y="115" class="monospace text-green-dim" font-size="8" text-anchor="middle">Aug</text>
        <text x="81.2" y="115" class="monospace text-green-dim" font-size="8" text-anchor="middle">Sep</text>
        <text x="108.2" y="115" class="monospace text-green-dim" font-size="8" text-anchor="middle">Oct</text>
        <text x="135.3" y="115" class="monospace text-green-dim" font-size="8" text-anchor="middle">Nov</text>
        <text x="162.4" y="115" class="monospace text-green-dim" font-size="8" text-anchor="middle">Dec</text>
        <text x="189.4" y="115" class="monospace text-green-dim" font-size="8" text-anchor="middle">Jan</text>
        <text x="216.5" y="115" class="monospace text-green-dim" font-size="8" text-anchor="middle">Feb</text>
        <text x="243.5" y="115" class="monospace text-green-dim" font-size="8" text-anchor="middle">Mar</text>
        <text x="270.6" y="115" class="monospace text-green-dim" font-size="8" text-anchor="middle">Apr</text>
        <text x="304.4" y="115" class="monospace text-green-dim" font-size="8" text-anchor="middle">May</text>
        <text x="331.5" y="115" class="monospace text-green-dim" font-size="8" text-anchor="middle">Jun</text>
      <path d="M0.0,35.1L6.8,35.1L13.5,38.4L20.3,35.1L27.1,29.6L33.8,30.7L40.6,30.7L47.4,31.8L54.1,32.9L60.9,27.4L67.6,34.0L74.4,35.1L81.2,31.8L87.9,26.3L94.7,26.3L101.5,25.2L108.2,26.3L115.0,29.6L121.8,24.1L128.5,30.7L135.3,21.9L142.1,21.9L148.8,21.9L155.6,13.1L162.4,12.0L169.1,12.0L175.9,86.8L182.6,86.8L189.4,18.6L196.2,18.6L202.9,13.1L209.7,12.0L216.5,12.0L223.2,15.3L230.0,14.2L236.8,12.0L243.5,12.0L250.3,12.0L257.1,18.6L263.8,21.9L270.6,20.8L277.4,21.9L284.1,20.8L290.9,27.4L297.6,30.7L304.4,25.2L311.2,21.9L317.9,18.6L324.7,13.1L331.5,16.4L338.2,12.0L345.0,12.0 L345.0,100.0 L0.0,100.0 Z" fill="url(#chart-grad-ly)" stroke="none" class="chart-fill"/>
      <path d="M0.0,35.1L6.8,35.1L13.5,38.4L20.3,35.1L27.1,29.6L33.8,30.7L40.6,30.7L47.4,31.8L54.1,32.9L60.9,27.4L67.6,34.0L74.4,35.1L81.2,31.8L87.9,26.3L94.7,26.3L101.5,25.2L108.2,26.3L115.0,29.6L121.8,24.1L128.5,30.7L135.3,21.9L142.1,21.9L148.8,21.9L155.6,13.1L162.4,12.0L169.1,12.0L175.9,86.8L182.6,86.8L189.4,18.6L196.2,18.6L202.9,13.1L209.7,12.0L216.5,12.0L223.2,15.3L230.0,14.2L236.8,12.0L243.5,12.0L250.3,12.0L257.1,18.6L263.8,21.9L270.6,20.8L277.4,21.9L284.1,20.8L290.9,27.4L297.6,30.7L304.4,25.2L311.2,21.9L317.9,18.6L324.7,13.1L331.5,16.4L338.2,12.0L345.0,12.0" fill="none" stroke="#33cc66" stroke-width="2" class="chart-line-g1"/>
    </svg>
  </g>

  <!-- ═══ ROW 2: Languages (left) + Top Repositories (right) ═══ -->
  <rect x="15" y="254" width="375" height="160" fill="none" stroke="#33cc66" stroke-width="2"/>
  <g transform="translate(15,254)">
    <text x="20" y="22" class="monospace text-gold" font-size="12" font-weight="bold">[ MOST USED LANGUAGES ]</text>
    
      <text x="20" y="52" font-size="10" class="monospace text-white">Python <tspan fill="#3572A5" font-weight="bold">(74.8%)</tspan></text>
      <text x="20" y="65" font-size="9" font-family="monospace, Courier, fixed" textLength="335" lengthAdjust="spacing"><tspan fill="#3572A5">##############################</tspan><tspan fill="#33cc66" opacity="0.18">::::::::::</tspan></text>
      <text x="20" y="79" font-size="10" class="monospace text-white">Vue <tspan fill="#41b883" font-weight="bold">(10.1%)</tspan></text>
      <text x="20" y="92" font-size="9" font-family="monospace, Courier, fixed" textLength="335" lengthAdjust="spacing"><tspan fill="#41b883">####</tspan><tspan fill="#33cc66" opacity="0.18">::::::::::::::::::::::::::::::::::::</tspan></text>
      <text x="20" y="106" font-size="10" class="monospace text-white">GDScript <tspan fill="#478CBF" font-weight="bold">(9.7%)</tspan></text>
      <text x="20" y="119" font-size="9" font-family="monospace, Courier, fixed" textLength="335" lengthAdjust="spacing"><tspan fill="#478CBF">####</tspan><tspan fill="#33cc66" opacity="0.18">::::::::::::::::::::::::::::::::::::</tspan></text>
      <text x="20" y="133" font-size="10" class="monospace text-white">JavaScript <tspan fill="#f1e05a" font-weight="bold">(3.8%)</tspan></text>
      <text x="20" y="146" font-size="9" font-family="monospace, Courier, fixed" textLength="335" lengthAdjust="spacing"><tspan fill="#f1e05a">##</tspan><tspan fill="#33cc66" opacity="0.18">::::::::::::::::::::::::::::::::::::::</tspan></text>
  </g>

  <rect x="400" y="254" width="383" height="160" fill="none" stroke="#33cc66" stroke-width="2"/>
  <g transform="translate(400,254)">
    <text x="20" y="22" class="monospace text-gold" font-size="12" font-weight="bold">[ TOP REPOSITORIES ]</text>
    
      <text x="20" y="50" font-size="11.5" class="monospace text-green" font-weight="bold">DinoGochi-WebOpen</text>
      <text x="230" y="50" font-size="11.5" class="monospace text-gold">&#x2605; 43</text>
      <text x="280" y="50" font-size="10" class="monospace text-white" opacity="0.55">[Python]</text>
      <text x="20" y="78" font-size="11.5" class="monospace text-green" font-weight="bold">SMM.web</text>
      <text x="230" y="78" font-size="11.5" class="monospace text-gold">&#x2605; 18</text>
      <text x="280" y="78" font-size="10" class="monospace text-white" opacity="0.55">[Vue]</text>
      <text x="20" y="106" font-size="11.5" class="monospace text-green" font-weight="bold">SPS-Shortly-PartySto..</text>
      <text x="230" y="106" font-size="11.5" class="monospace text-gold">&#x2605; 15</text>
      <text x="280" y="106" font-size="10" class="monospace text-white" opacity="0.55">[GDScript]</text>
      <text x="20" y="134" font-size="11.5" class="monospace text-green" font-weight="bold">vibe-preparation</text>
      <text x="230" y="134" font-size="11.5" class="monospace text-gold">&#x2605; 2</text>
      <text x="280" y="134" font-size="10" class="monospace text-white" opacity="0.55">[JavaScript]</text>
  </g>

  <!-- ═══ ROW 3: Last 4 Years Graph + All-Time Stats ═══ -->
  <rect x="15" y="426" width="770" height="207" fill="none" stroke="#33cc66" stroke-width="2"/>
  <g transform="translate(15,426)">
    <text x="20" y="22" class="monospace text-gold" font-size="12" font-weight="bold">[ CONTRIBUTION GRAPH - LAST 4 YEARS ]</text>
    <defs>
      <linearGradient id="chart-grad-at" x1="0" y1="0" x2="0" y2="1">
        <stop offset="0%" stop-color="#33cc66" stop-opacity="0.35"/>
        <stop offset="100%" stop-color="#33cc66" stop-opacity="0.0"/>
      </linearGradient>
    </defs>
    <svg x="15" y="30" width="540" height="165" viewBox="0 0 540 165" preserveAspectRatio="none">
      <line x1="0" y1="39" x2="540" y2="39" stroke="#33cc66" stroke-width="0.5" opacity="0.08" stroke-dasharray="2 2"/>
      <line x1="0" y1="79" x2="540" y2="79" stroke="#33cc66" stroke-width="0.5" opacity="0.08" stroke-dasharray="2 2"/>
      <line x1="0.0" y1="0" x2="0.0" y2="120" stroke="#33cc66" stroke-width="0.5" opacity="0.18" stroke-dasharray="2 2"/>
        <text x="2.0" y="133" class="monospace text-green-dim" font-size="7.5" text-anchor="start">2022</text>
        <line x1="70.4" y1="0" x2="70.4" y2="120" stroke="#33cc66" stroke-width="0.5" opacity="0.18" stroke-dasharray="2 2"/>
        <text x="72.4" y="133" class="monospace text-green-dim" font-size="7.5" text-anchor="start">2023</text>
        <line x1="206.1" y1="0" x2="206.1" y2="120" stroke="#33cc66" stroke-width="0.5" opacity="0.18" stroke-dasharray="2 2"/>
        <text x="208.1" y="133" class="monospace text-green-dim" font-size="7.5" text-anchor="start">2024</text>
        <line x1="341.7" y1="0" x2="341.7" y2="120" stroke="#33cc66" stroke-width="0.5" opacity="0.18" stroke-dasharray="2 2"/>
        <text x="343.7" y="133" class="monospace text-green-dim" font-size="7.5" text-anchor="start">2025</text>
        <line x1="480.0" y1="0" x2="480.0" y2="120" stroke="#33cc66" stroke-width="0.5" opacity="0.18" stroke-dasharray="2 2"/>
        <text x="482.0" y="133" class="monospace text-green-dim" font-size="7.5" text-anchor="start">2026</text>
      <path d="M0.0,34.2L2.6,38.2L5.2,46.1L7.8,46.1L10.4,50.0L13.0,58.0L15.7,54.0L18.3,58.0L20.9,58.0L23.5,56.6L26.1,46.1L28.7,46.1L31.3,47.4L33.9,36.8L36.5,36.8L39.1,26.3L41.7,19.7L44.3,19.7L47.0,23.6L49.6,27.6L52.2,21.0L54.8,17.0L57.4,14.4L60.0,14.4L62.6,14.4L65.2,105.5L67.8,106.8L70.4,34.2L73.0,27.6L75.7,23.6L78.3,27.6L80.9,27.6L83.5,27.6L86.1,27.6L88.7,17.0L91.3,18.4L93.9,14.4L96.5,15.7L99.1,14.4L101.7,14.4L104.3,14.4L107.0,18.4L109.6,14.4L112.2,18.4L114.8,26.3L117.4,34.2L120.0,38.2L122.6,38.2L125.2,39.5L127.8,32.9L130.4,22.3L133.0,14.4L135.7,14.4L138.3,14.4L140.9,22.3L143.5,23.6L146.1,17.0L148.7,25.0L151.3,18.4L153.9,17.0L156.5,14.4L159.1,14.4L161.7,14.4L164.3,14.4L167.0,15.7L169.6,15.7L172.2,14.4L174.8,14.4L177.4,22.3L180.0,30.2L182.6,26.3L185.2,34.2L187.8,42.1L190.4,31.6L193.0,32.9L195.7,40.8L198.3,44.8L200.9,46.1L203.5,110.8L206.1,54.0L208.7,54.0L211.3,47.4L213.9,51.4L216.5,51.4L219.1,59.3L221.7,63.2L224.3,56.6L227.0,52.7L229.6,51.4L232.2,51.4L234.8,47.4L237.4,47.4L240.0,46.1L242.6,39.5L245.2,40.8L247.8,39.5L250.4,28.9L253.0,25.0L255.7,28.9L258.3,36.8L260.9,26.3L263.5,30.2L266.1,34.2L268.7,34.2L271.3,32.9L273.9,34.2L276.5,30.2L279.1,34.2L281.7,34.2L284.3,30.2L287.0,28.9L289.6,30.2L292.2,19.7L294.8,18.4L297.4,26.3L300.0,25.0L302.6,28.9L305.2,30.2L307.8,28.9L310.4,32.9L313.0,36.8L315.7,38.2L318.3,36.8L320.9,35.5L323.5,35.5L326.1,31.6L328.7,31.6L331.3,30.2L333.9,19.7L336.5,18.4L339.1,106.8L341.7,30.2L344.3,23.6L347.0,22.3L349.6,30.2L352.2,38.2L354.8,34.2L357.4,35.5L360.0,34.2L362.6,35.5L365.2,25.0L367.8,18.4L370.4,26.3L373.0,30.2L375.7,34.2L378.3,35.5L380.9,43.4L383.5,39.5L386.1,40.8L388.7,34.2L391.3,35.5L393.9,43.4L396.5,42.1L399.1,38.2L401.7,46.1L404.3,42.1L407.0,42.1L409.6,42.1L412.2,46.1L414.8,42.1L417.4,35.5L420.0,36.8L422.6,36.8L425.2,38.2L427.8,39.5L430.4,32.9L433.0,40.8L435.7,42.1L438.3,38.2L440.9,31.6L443.5,31.6L446.1,30.2L448.7,31.6L451.3,35.5L453.9,28.9L456.5,36.8L459.1,26.3L461.7,26.3L464.3,26.3L467.0,15.7L469.6,14.4L472.2,14.4L474.8,104.2L477.4,104.2L480.0,22.3L482.6,22.3L485.2,15.7L487.8,14.4L490.4,14.4L493.0,18.4L495.7,17.0L498.3,14.4L500.9,14.4L503.5,14.4L506.1,22.3L508.7,26.3L511.3,25.0L513.9,26.3L516.5,25.0L519.1,32.9L521.7,36.8L524.3,30.2L527.0,26.3L529.6,22.3L532.2,15.7L534.8,19.7L537.4,14.4L540.0,14.4 L540.0,120.0 L0.0,120.0 Z" fill="url(#chart-grad-at)" stroke="none" class="chart-fill"/>
      <path d="M0.0,34.2L2.6,38.2L5.2,46.1L7.8,46.1L10.4,50.0L13.0,58.0L15.7,54.0L18.3,58.0L20.9,58.0L23.5,56.6L26.1,46.1L28.7,46.1L31.3,47.4L33.9,36.8L36.5,36.8L39.1,26.3L41.7,19.7L44.3,19.7L47.0,23.6L49.6,27.6L52.2,21.0L54.8,17.0L57.4,14.4L60.0,14.4L62.6,14.4L65.2,105.5L67.8,106.8L70.4,34.2L73.0,27.6L75.7,23.6L78.3,27.6L80.9,27.6L83.5,27.6L86.1,27.6L88.7,17.0L91.3,18.4L93.9,14.4L96.5,15.7L99.1,14.4L101.7,14.4L104.3,14.4L107.0,18.4L109.6,14.4L112.2,18.4L114.8,26.3L117.4,34.2L120.0,38.2L122.6,38.2L125.2,39.5L127.8,32.9L130.4,22.3L133.0,14.4L135.7,14.4L138.3,14.4L140.9,22.3L143.5,23.6L146.1,17.0L148.7,25.0L151.3,18.4L153.9,17.0L156.5,14.4L159.1,14.4L161.7,14.4L164.3,14.4L167.0,15.7L169.6,15.7L172.2,14.4L174.8,14.4L177.4,22.3L180.0,30.2L182.6,26.3L185.2,34.2L187.8,42.1L190.4,31.6L193.0,32.9L195.7,40.8L198.3,44.8L200.9,46.1L203.5,110.8L206.1,54.0L208.7,54.0L211.3,47.4L213.9,51.4L216.5,51.4L219.1,59.3L221.7,63.2L224.3,56.6L227.0,52.7L229.6,51.4L232.2,51.4L234.8,47.4L237.4,47.4L240.0,46.1L242.6,39.5L245.2,40.8L247.8,39.5L250.4,28.9L253.0,25.0L255.7,28.9L258.3,36.8L260.9,26.3L263.5,30.2L266.1,34.2L268.7,34.2L271.3,32.9L273.9,34.2L276.5,30.2L279.1,34.2L281.7,34.2L284.3,30.2L287.0,28.9L289.6,30.2L292.2,19.7L294.8,18.4L297.4,26.3L300.0,25.0L302.6,28.9L305.2,30.2L307.8,28.9L310.4,32.9L313.0,36.8L315.7,38.2L318.3,36.8L320.9,35.5L323.5,35.5L326.1,31.6L328.7,31.6L331.3,30.2L333.9,19.7L336.5,18.4L339.1,106.8L341.7,30.2L344.3,23.6L347.0,22.3L349.6,30.2L352.2,38.2L354.8,34.2L357.4,35.5L360.0,34.2L362.6,35.5L365.2,25.0L367.8,18.4L370.4,26.3L373.0,30.2L375.7,34.2L378.3,35.5L380.9,43.4L383.5,39.5L386.1,40.8L388.7,34.2L391.3,35.5L393.9,43.4L396.5,42.1L399.1,38.2L401.7,46.1L404.3,42.1L407.0,42.1L409.6,42.1L412.2,46.1L414.8,42.1L417.4,35.5L420.0,36.8L422.6,36.8L425.2,38.2L427.8,39.5L430.4,32.9L433.0,40.8L435.7,42.1L438.3,38.2L440.9,31.6L443.5,31.6L446.1,30.2L448.7,31.6L451.3,35.5L453.9,28.9L456.5,36.8L459.1,26.3L461.7,26.3L464.3,26.3L467.0,15.7L469.6,14.4L472.2,14.4L474.8,104.2L477.4,104.2L480.0,22.3L482.6,22.3L485.2,15.7L487.8,14.4L490.4,14.4L493.0,18.4L495.7,17.0L498.3,14.4L500.9,14.4L503.5,14.4L506.1,22.3L508.7,26.3L511.3,25.0L513.9,26.3L516.5,25.0L519.1,32.9L521.7,36.8L524.3,30.2L527.0,26.3L529.6,22.3L532.2,15.7L534.8,19.7L537.4,14.4L540.0,14.4" fill="none" stroke="#33cc66" stroke-width="2" class="chart-line-g2"/>
    </svg>
    <!-- All-time stats sidebar -->
    <g transform="translate(572,38)" font-size="10" class="monospace">
      <text x="0" y="0"  class="text-green-dim" font-size="8.5" font-weight="bold">ALL-TIME STATS</text>
      <text x="0" y="22" class="text-green">COMMITS:</text>
      <text x="0" y="36" class="text-white" font-size="13" font-weight="bold">20720</text>
      <text x="0" y="62" class="text-green">PEAK / WK:</text>
      <text x="0" y="76" class="text-white" font-size="13" font-weight="bold">80</text>
      <text x="0" y="102" class="text-green">ACTIVE YRS:</text>
      <text x="0" y="116" class="text-white" font-size="13" font-weight="bold">8</text>
      <text x="0" y="142" class="text-green">WEEKS:</text>
      <text x="0" y="156" class="text-white" font-size="13" font-weight="bold">364</text>
    </g>
  </g>
</svg>